<svg id="Layer_1" data-name="Layer 1" xmlns="http://www.w3.org/2000/svg" viewBox="0 0 491.59 112.82"><defs><style>.cls-1{fill:#ec941a;}</style></defs><path class="cls-1" d="M42.66,38.19C41.28,30.82,34.57,24.5,27.29,23A22.67,22.67,0,0,0,6,30.11C0,36.84-2.12,46.46,2.47,54.55c3.3,5.82,9.27,9.58,15.23,12.25a74.12,74.12,0,0,1,8.86,4.34l.94.61c.56.38,1.65,1.54,0-.08.57.55,1.21,1,1.77,1.6.21.23.41.46.62.68.48.59.32.37-.48-.65.15.2.29.4.43.61a14.64,14.64,0,0,1,1.26,2.34l-.76-1.79a15.85,15.85,0,0,1,1,3.66l-.27-2a16.57,16.57,0,0,1,0,3.79l.27-2a15.35,15.35,0,0,1-1,3.65l.76-1.79A14.51,14.51,0,0,1,30,82c-.92,1.38,1.12-1.19.19-.22-.25.26-.49.54-.75.79s-.55.48-.8.73c1.52-1.51.9-.67.35-.3a15.48,15.48,0,0,1-2.23,1.21l1.79-.75a15.75,15.75,0,0,1-3.83,1l2-.27a14.13,14.13,0,0,1-3.25,0l2,.26a13.43,13.43,0,0,1-3.1-.84l1.8.75A20,20,0,0,1,22,83.16c-1.14-.68,1.37,1.23.39.31-.3-.28-.62-.55-.91-.84s-.74-.63-.83-.93l.74,1c-.14-.19-.27-.39-.4-.59a14.72,14.72,0,0,1-1.15-2.19l.76,1.79a12.89,12.89,0,0,1-.8-3.06l.27,2c0-.24-.05-.47-.06-.71a8,8,0,0,0-2.2-5.3,7.63,7.63,0,0,0-5.3-2.2c-3.83.17-7.8,3.31-7.5,7.5A20.84,20.84,0,0,0,19.35,98.43c7.34,2.39,16.38-.29,21.41-6.09a22.08,22.08,0,0,0,3-24.35c-3.06-6.34-9.49-10.14-15.66-12.91a63.63,63.63,0,0,1-9-4.52l-.92-.62c-1.58-1.12,1,.89.06.05-.55-.48-1.09-.94-1.6-1.46-.25-.26-.48-.53-.72-.79-.86-.92,1.16,1.68.1.12a14.2,14.2,0,0,1-1.17-2.13l.76,1.79a12.49,12.49,0,0,1-.84-3.13l.27,2a13.31,13.31,0,0,1,0-3l-.27,2a16.2,16.2,0,0,1,1-3.69L15,43.52a21.87,21.87,0,0,1,1.58-2.84c.45-.62.29-.42-.49.61l.49-.57c.29-.33.59-.65.91-.95s.7-.56,1-.88c-1,.78-1.24.94-.62.49.2-.14.41-.29.62-.42a16.72,16.72,0,0,1,2.65-1.39l-1.79.76a15.8,15.8,0,0,1,3.58-1l-2,.26a14.46,14.46,0,0,1,3.66,0l-2-.27a14.67,14.67,0,0,1,3.05.84l-1.8-.76a14.23,14.23,0,0,1,2.19,1.14c.58.37,1.12,1.08-.38-.35.3.28.63.52.92.81s.57.59.85.88c.85.91-1-1.54-.33-.41a14.15,14.15,0,0,1,1.16,2.13l-.75-1.8a12.78,12.78,0,0,1,.68,2.34c.72,3.87,5.59,6.41,9.22,5.24,4.14-1.34,6-5.08,5.24-9.23Z"/><path class="cls-1" d="M58.68,20.73q-1.78,24-2.26,48.11c-.15,7.79-.42,15.63-.09,23.42a31.75,31.75,0,0,0,3,13.19,13.17,13.17,0,0,0,12.7,7.33C82.17,112,90,103.22,90.23,93.2a7.56,7.56,0,0,0-7.5-7.5,7.64,7.64,0,0,0-7.5,7.5,13.36,13.36,0,0,1-.1,1.41l.27-2a13,13,0,0,1-.85,3.06l.76-1.79a14.2,14.2,0,0,1-1.08,2c-.9,1.38,1.12-1.22.22-.23-.24.26-.47.53-.72.78s-.52.49-.78.73c-1,.9,1.46-1,.39-.31a18.28,18.28,0,0,1-2.18,1.17L73,97.31a12.12,12.12,0,0,1-2.49.69l2-.27a8.66,8.66,0,0,1-2.33,0l2,.27A8.22,8.22,0,0,1,71,97.71l1.8.75c-.36-.15-.67-.38-1-.53q1.39,1.14.78.54c-.39-.42-.21-.16.54.77-.27-.72-.85-1.43-1.17-2.16l.76,1.79a20.62,20.62,0,0,1-1.34-5.07l.26,2c-.6-4.64-.37-9.39-.35-14q0-7.32.19-14.65.32-14.76,1.13-29.52.47-8.43,1.09-16.85c.29-3.92-3.66-7.67-7.5-7.5a7.68,7.68,0,0,0-7.5,7.5Z"/><path class="cls-1" d="M50,62.41c10.64-.43,21.49-.93,31.76-4,3.76-1.12,6.51-5.32,5.24-9.23s-5.2-6.43-9.23-5.24a75.78,75.78,0,0,1-11.46,2.41l2-.27c-6.08.8-12.2,1.06-18.31,1.31-3.92.15-7.69,3.34-7.5,7.5.17,3.93,3.3,7.67,7.5,7.5Z"/><path class="cls-1" d="M99.89,75.48l15.28-2.42a58.79,58.79,0,0,0,7.1-1.2,11,11,0,0,0,8-8.25,24,24,0,0,0-.45-9.4,23.79,23.79,0,0,0-3-7.61,18.79,18.79,0,0,0-14.71-9.18c-5.5-.37-11.08,2.55-14.76,6.48a28.75,28.75,0,0,0-7,13.75,43.49,43.49,0,0,0-.51,14.26c.71,5.69,1.51,12,5.93,16.12a22.74,22.74,0,0,0,6.81,4.29,41.86,41.86,0,0,0,8.52,3.06,18.36,18.36,0,0,0,11.31-1.14,13.49,13.49,0,0,0,3.87-2.66,14.52,14.52,0,0,0,3.26-5.29c.7-1.66.1-4.31-.76-5.78a7.49,7.49,0,0,0-10.26-2.69,8.9,8.9,0,0,0-3.45,4.48l-.13.32.76-1.79c-.16.31-.36.58-.53.89.82-1,1-1.29.62-.87a4.17,4.17,0,0,1-.37.36c.1-.4,1.68-1.11.38-.38a10.59,10.59,0,0,1-1,.46l1.79-.76a10.41,10.41,0,0,1-2.06.54l2-.27a12.09,12.09,0,0,1-2.82,0l2,.27a32.56,32.56,0,0,1-7.38-2.42l1.79.75a24.88,24.88,0,0,1-4-2.08c-1.07-.69,1.3,1.24.36.27-.17-.18-.75-.56-.77-.78,0,.2,1.13,1.64.41.49a9.15,9.15,0,0,1-.66-1.33l.75,1.79a35.16,35.16,0,0,1-1.62-7.4l.27,2a41.51,41.51,0,0,1-.14-10.68l-.27,2A27.55,27.55,0,0,1,106.31,57l-.76,1.79A23,23,0,0,1,107,55.92c.26-.43.63-.84.85-1.29-.79,1-.95,1.2-.46.6.12-.15.25-.29.38-.43.3-.34.61-.67.94-1s.37-.35.57-.52c.59-.49.38-.34-.62.46.89-.48,1.68-1.1,2.61-1.52l-1.79.76a12.4,12.4,0,0,1,2.84-.8l-2,.27a11,11,0,0,1,2.22,0l-2-.27a10.17,10.17,0,0,1,2.54.69l-1.79-.76a16,16,0,0,1,1.81,1c.75.46-1.37-1.2-.46-.36.28.26.56.52.82.8s1,1.15.16.11-.08-.09.09.17a17.08,17.08,0,0,1,1.2,2.23l-.76-1.8a23.2,23.2,0,0,1,1.54,5.84l-.27-2a14.07,14.07,0,0,1,.13,3.49l.27-2a7.47,7.47,0,0,1-.28,1l.75-1.79c-.47,1,.76-.74,1.09-1,1-.76.07-.11-.19,0l1.79-.76a25.53,25.53,0,0,1-5.15,1l-6.06,1L95.9,61a7.5,7.5,0,0,0-4.48,3.44,7.53,7.53,0,0,0,2.69,10.27,8.61,8.61,0,0,0,5.78.75Z"/><path class="cls-1" d="M148.71,48.45c.16-.3.32-.59.5-.88.43-.67,1-.84-.39.44.43-.4.83-.87,1.26-1.29,1-1-.62.47-.62.45a6.64,6.64,0,0,1,.83-.55,14.38,14.38,0,0,1,1.79-.92l-1.8.76a17.78,17.78,0,0,1,4.28-1.18l-2,.27a20.45,20.45,0,0,1,4.82,0l-2-.26a16.53,16.53,0,0,1,3.67.89l-1.79-.75c.48.2.92.46,1.39.7,1.2.62-1.3-1.25-.19-.1s-.79-1.42-.21-.27c.22.42.45.82.63,1.25l-.75-1.79a15.43,15.43,0,0,1,.81,3.16l-.27-2a86.76,86.76,0,0,1,.4,9.54l.24,10.72.48,21.67c.09,3.92,3.39,7.69,7.5,7.5s7.59-3.29,7.5-7.5L174,52.41c-.13-6-.42-12.63-5.05-17.15-4.82-4.71-12-5.38-18.38-4.44-6,.9-11.93,4.6-14.81,10.06-1.84,3.46-1,8.31,2.69,10.26,3.47,1.83,8.3,1,10.26-2.69Z"/><path class="cls-1" d="M169.49,58.36a25.44,25.44,0,0,0-9.42-3.49A45.3,45.3,0,0,0,150,54c-4.29.27-8.38,1.63-11.44,4.78a19.83,19.83,0,0,0-4.79,8.81c-1.79,7-1.05,14.82,3.85,20.35,4.47,5,12.47,6.3,18.69,4.3,7.41-2.4,12.44-8.47,16.29-15,2-3.37.87-8.37-2.69-10.26a7.64,7.64,0,0,0-10.26,2.69c-.65,1.1-1.32,2.18-2,3.23-.19.28-.39.55-.58.82-.58.83.32-.37.45-.55a14.5,14.5,0,0,1-1.29,1.53c-.4.44-.82.87-1.25,1.28-.24.23-.49.44-.74.66-.79.72.56-.33.6-.43-.15.37-1.32.91-1.65,1.1a14.61,14.61,0,0,1-1.63.82l1.79-.76a14,14,0,0,1-3.36.89l2-.26a14.06,14.06,0,0,1-3.11,0l2,.27a11.56,11.56,0,0,1-2.93-.79l1.8.76c-.41-.19-.79-.42-1.18-.62-.95-.48.77.58.7.59s-.54-.48-.63-.56-.3-.34-.46-.5c-.51-.52.84,1.33.49.6-.24-.52-.56-1-.79-1.54l.75,1.79a13.46,13.46,0,0,1-.78-3l.27,2a20.83,20.83,0,0,1,0-5.35l-.27,2a18.48,18.48,0,0,1,1.08-4.13l-.76,1.8a14.31,14.31,0,0,1,.69-1.42c.14-.25.3-.49.45-.73.59-1-1,1.18-.45.57.2-.22.8-1.08,1.09-1.07,0,0-1.62,1.09-.69.58.34-.18.65-.36,1-.52l-1.79.76a11,11,0,0,1,2.47-.68l-2,.27a32.35,32.35,0,0,1,8.16.32l-2-.27a26.25,26.25,0,0,1,6.1,1.54L159.34,70a18.15,18.15,0,0,1,2.58,1.36,7.56,7.56,0,0,0,10.26-2.69,7.66,7.66,0,0,0-2.69-10.26Z"/><path class="cls-1" d="M194.53,86.66l3.07-32.23-12.8,5.31,9.51,7.48L199.16,71c1.89,1.5,3.76,3.22,5.78,4.54a8.44,8.44,0,0,0,10.92-1.52c1.6-1.85,2.95-4,4.39-5.94l7.32-10-13.71-1.8q4.59,16.07,8.37,32.35a7.57,7.57,0,0,0,9.23,5.24,7.68,7.68,0,0,0,5.24-9.23q-3.8-16.28-8.38-32.34a7.53,7.53,0,0,0-6.23-5.38c-3.17-.42-5.65,1.08-7.47,3.58l-5.42,7.43-2.63,3.62-1.32,1.8-.58.81c-.41.54-.39.53,0,0A3.64,3.64,0,0,1,206.07,63l1.79-.76-.3.07h4l-.29-.06L213,63c-1-.56,1.37,1.14.22.23l-1.17-.92-2.33-1.83-4.85-3.82-9.5-7.49a9.6,9.6,0,0,0-3.31-1.93,7.47,7.47,0,0,0-4.89.38c-2.92,1.23-4.32,3.79-4.61,6.85l-3.07,32.23a7.5,7.5,0,0,0,2.2,5.3,7.5,7.5,0,0,0,10.61,0,8.47,8.47,0,0,0,2.19-5.3Z"/><path class="cls-1" d="M245.1,69.08a55.65,55.65,0,0,0,18.48,0,42.93,42.93,0,0,0,7.25-1.89c3.52-1.25,7-2.82,8.94-6.24,2-3.59,1.56-7.32,1-11.2a24.76,24.76,0,0,0-2.56-8.25,20.86,20.86,0,0,0-13-9.85c-11-2.81-22.7,3.56-27.44,13.62a33,33,0,0,0,1.86,31c6,9.84,16.35,16.25,27.29,19.26,3.78,1,8.32-1.29,9.22-5.24a7.63,7.63,0,0,0-5.23-9.22A51,51,0,0,1,265,79l1.79.75A41.62,41.62,0,0,1,261.17,77c-.89-.53-1.76-1.11-2.6-1.71-.07-.06-.63-.39-.63-.46s1.45,1.15.6.45c-.44-.37-.89-.74-1.32-1.12-.77-.69-1.51-1.41-2.21-2.17-.35-.38-.7-.76-1-1.16-.16-.19-.32-.4-.49-.59-.58-.7,1,1.34.47.59a33.08,33.08,0,0,1-3.2-5.57l.76,1.79a28.23,28.23,0,0,1-1.94-7.16l.27,2a26.26,26.26,0,0,1,0-6.57l-.27,2a23.31,23.31,0,0,1,1.52-5.55l-.76,1.8A21.43,21.43,0,0,1,252,50.44l.43-.63c.69-1-.95,1.13-.36.45.37-.43.74-.87,1.14-1.28s.73-.71,1.12-1c.17-.14,1.2-1,.13-.13s-.22.18,0,0a18.9,18.9,0,0,1,3.15-1.73l-1.79.75a17.3,17.3,0,0,1,4-1.09l-2,.26a15.48,15.48,0,0,1,3.6,0l-2-.27a16.6,16.6,0,0,1,3.79,1l-1.8-.76a16.09,16.09,0,0,1,2.06,1.07c.61.38,1.34,1.28-.22-.26.25.25.54.46.79.7a10.46,10.46,0,0,1,.74.75l.46.54-.75-1c.45.15,1.06,1.86,1.22,2.23L265,48.27a28.82,28.82,0,0,1,1.5,6.69l-.27-2a13.52,13.52,0,0,1,.11,2.46l.26-2a6.47,6.47,0,0,1-.25,1.16l.75-1.79a5.39,5.39,0,0,1-.35.72l.72-1q-.62.57.21-.12c1-.76.26-.23,0-.09s-.55.28-.83.41L268.6,52a42.77,42.77,0,0,1-10.36,2.77l2-.27a45.26,45.26,0,0,1-11.8,0l2,.27-1.35-.21a8.17,8.17,0,0,0-5.78.76,7.49,7.49,0,0,0-2.69,10.26,7.28,7.28,0,0,0,4.48,3.45Z"/><path class="cls-1" d="M305.78,7.5c3.15,24.75,1.78,49.74,3.35,74.59.48,7.48,1.26,14.93,2.39,22.34.26,1.74,2,3.64,3.45,4.49a7.51,7.51,0,0,0,10.26-2.7,8.7,8.7,0,0,0,.75-5.77c-.17-1.13-.33-2.26-.48-3.38l.27,2c-3.17-23.67-2.07-47.6-3.27-71.39-.33-6.74-.87-13.47-1.72-20.17a8.2,8.2,0,0,0-2.2-5.3,7.48,7.48,0,0,0-10.6,0c-1.25,1.36-2.44,3.38-2.2,5.3Z"/><path class="cls-1" d="M317.43,47.18a20.31,20.31,0,0,0-21,1.43A36.53,36.53,0,0,0,284.14,63c-2.9,6.2-4.52,13.2-3,20a16.17,16.17,0,0,0,16.19,12.38c7.82-.09,13.87-4.89,19.28-10A7.5,7.5,0,1,0,306,74.76C304.7,76,303.36,77.23,302,78.4c-1.18,1,1.46-1,.19-.16-.35.23-.68.48-1,.7a19.57,19.57,0,0,1-2.55,1.37l1.79-.75a14.69,14.69,0,0,1-3.57,1l2-.27a13.43,13.43,0,0,1-3.23,0l2,.27a11.33,11.33,0,0,1-2.36-.66l1.79.76c-.43-.2-.82-.43-1.23-.65-1.13-.62,1.44,1.33.29.2s.77,1.4.12.22c-.25-.45-.5-.88-.71-1.35l.75,1.79a13.13,13.13,0,0,1-.78-3l.27,2a20.8,20.8,0,0,1,.07-5.17l-.27,2a28.35,28.35,0,0,1,1.85-6.76l-.75,1.79a31.89,31.89,0,0,1,2.29-4.42c.41-.65.83-1.28,1.28-1.89,1-1.34-.64.77-.16.19.27-.31.53-.64.81-.95a45.34,45.34,0,0,1,3.37-3.28c-1.51,1.42-.71.53-.21.19.34-.23.68-.45,1-.66a19.27,19.27,0,0,1,2.18-1.09l-1.79.76a15.75,15.75,0,0,1,3.16-.87l-2,.27a14.3,14.3,0,0,1,3.27,0l-2-.27a11.88,11.88,0,0,1,2.74.71l-1.79-.76c.37.17.73.34,1.09.54,3.45,1.88,8.33,1,10.26-2.69s1-8.26-2.69-10.27Z"/><path class="cls-1" d="M347.25,32.71A167.66,167.66,0,0,1,355,65.64l-.27-2c1.34,10,2,20,2.51,30.07.21,3.91,3.3,7.69,7.5,7.5,3.88-.17,7.73-3.3,7.5-7.5-.92-17.06-2.18-34.23-6.33-50.87q-1.79-7.16-4.24-14.13c-1.29-3.69-5.19-6.54-9.22-5.24-3.66,1.18-6.63,5.26-5.24,9.23Z"/><path class="cls-1" d="M350.16,39c1.7-.88,3.43-1.7,5.19-2.44l-1.79.75a41.92,41.92,0,0,1,10.38-3l-2,.26a22.9,22.9,0,0,1,5.79-.05l-2-.27a16,16,0,0,1,3.8,1l-1.8-.75a12.19,12.19,0,0,1,2.76,1.58L369,34.89a12.55,12.55,0,0,1,2.21,2.22L370,35.59a13,13,0,0,1,1.6,2.78l-.76-1.79a15.36,15.36,0,0,1,1,3.7l-.27-2a17.76,17.76,0,0,1,0,4.49l.27-2a18,18,0,0,1-1.21,4.49l.76-1.79a16.49,16.49,0,0,1-2.06,3.57l1.17-1.52a14,14,0,0,1-2.33,2.35l1.52-1.17a11.88,11.88,0,0,1-2.6,1.52l1.79-.75-.68.26a8,8,0,0,0-4.48,3.45A7.67,7.67,0,0,0,363,57c1.18,3.64,5.27,6.63,9.23,5.23a20.73,20.73,0,0,0,11.31-9.42,24.82,24.82,0,0,0,3.19-13.16,21.92,21.92,0,0,0-5.57-13.91c-3.8-4.17-9.38-6-14.88-6.34-8.24-.44-16.51,2.95-23.67,6.65a7.55,7.55,0,0,0-2.69,10.26A7.67,7.67,0,0,0,350.16,39Z"/><path class="cls-1" d="M369.21,64.09a10.08,10.08,0,0,1,1.52-.81l-1.79.75a10.09,10.09,0,0,1,2.23-.61l-2,.27a10.8,10.8,0,0,1,2.84,0l-2-.27a14,14,0,0,1,3.42,1l-1.79-.76a18.9,18.9,0,0,1,3.59,2l.5.36c.75.53-1.76-1.41-1-.8l.84.7c.55.49,1.09,1,1.6,1.53s1,1.11,1.48,1.69.88,1.3-.77-1c.12.18.26.35.39.52l.64.93a25.33,25.33,0,0,1,2.14,4l-.76-1.79a20.71,20.71,0,0,1,1.4,5l-.27-2a16.5,16.5,0,0,1,0,4.27l.27-2a14.39,14.39,0,0,1-.92,3.4l.75-1.8a13.5,13.5,0,0,1-1.33,2.45,4.15,4.15,0,0,0-.24.34c-.45.68,1-1.28.87-1.12s-.32.39-.49.58c-.35.4-.72.78-1.1,1.14l-.55.49-.35.29c-.64.57,1.22-.91,1.07-.82-.51.3-1,.7-1.46,1a25.58,25.58,0,0,1-3.49,1.8l1.79-.76a42,42,0,0,1-10.64,2.71l2-.27c-2.18.28-4.38.45-6.58.54-3.91.16-7.69,3.34-7.5,7.5.18,3.93,3.3,7.67,7.5,7.5,8.48-.34,18-1.59,25.17-6.51a24.42,24.42,0,0,0,7.44-7.6,22.08,22.08,0,0,0,2.87-9.48c.51-5.45-1.45-11.3-4.31-15.87a31.49,31.49,0,0,0-11.66-11.26c-5.86-3-13.11-3.93-18.9-.15-3.28,2.14-5,6.74-2.69,10.26,2.11,3.28,6.75,5,10.26,2.69Z"/><path class="cls-1" d="M398.41,56.15q.36,8,.71,15.89c.26,5.82.72,11.53,3.09,16.92,2.44,5.54,7.94,9.94,14.22,9.49,4.43-.32,8.61-2.08,12.51-4.11a36.37,36.37,0,0,0,6-4,15.62,15.62,0,0,0,4.58-6.41c.69-1.67.11-4.3-.76-5.78a7.49,7.49,0,0,0-10.26-2.69,8.9,8.9,0,0,0-3.45,4.48l-.07.19.75-1.8c-.07.16-.17.31-.25.47-.44.92.57-.8.71-.85-.27.11-.65.73-.88.94-.52.49-1.94,1.41.18-.05-.43.29-.84.61-1.28.9a38.79,38.79,0,0,1-5.81,3.06l1.79-.76a22.6,22.6,0,0,1-5.32,1.64l2-.27a9.34,9.34,0,0,1-1.83.06l2,.27a7.38,7.38,0,0,1-1.79-.47l1.79.75c-.39-.18-1.81-1.16-.72-.34,1.33,1-.44-.65-.5-.66.14,0,1.05,1.5.52.64-.12-.21-.26-.41-.38-.63a13.6,13.6,0,0,1-.81-1.62l.76,1.79a26.16,26.16,0,0,1-1.54-6l.27,2c-.49-3.69-.54-7.42-.71-11.13l-.53-11.92c-.17-3.91-3.32-7.69-7.5-7.5-3.91.17-7.69,3.3-7.5,7.5Z"/><path class="cls-1" d="M425.57,44.32q0,20-.07,39.92c0,5.67.1,11.61,3.25,16.56,2.11,3.31,6.77,4.94,10.26,2.69,3.31-2.13,4.95-6.72,2.69-10.26a14.31,14.31,0,0,1-.95-1.77l.76,1.79a16.9,16.9,0,0,1-1-3.89l.27,2a73.69,73.69,0,0,1-.26-9.4q0-4.4,0-8.8l0-20.05c0-2.93,0-5.85,0-8.78,0-3.92-3.45-7.68-7.5-7.5a7.65,7.65,0,0,0-7.5,7.5Z"/><path class="cls-1" d="M463.27,86.61c-.49-2.55-.9-5.1-1.25-7.67l.27,2c-1.27-9.63-1.62-19.34-2-29l-12.81,5.3a27.9,27.9,0,0,1,2.8,2.95l.74.91c.49.6-.73-1-.64-.84s.21.28.31.41c.5.67,1,1.34,1.46,2,1.85,2.67,3.57,5.43,5.33,8.16,2,3.14,4.14,6.2,6.47,9.13,1.88,2.38,4.17,4.29,6.24,6.5,2.88,3.07,5.43,6.47,8.58,9.28a7.62,7.62,0,0,0,8.2,1.55,7.53,7.53,0,0,0,4.61-6.85c-.06-14.33-.23-28.66-.61-43-.08-3.23-.18-6.46-.35-9.68-.21-3.91-3.3-7.69-7.5-7.5-3.88.17-7.73,3.3-7.5,7.5.77,14.29.76,28.65.89,43q0,4.85.07,9.69l12.8-5.31a101.1,101.1,0,0,1-7.58-8.18c-2.08-2.32-4.5-4.3-6.5-6.69-.22-.25-.43-.51-.64-.78-1-1.26.94,1.26.22.29-.45-.62-.91-1.24-1.35-1.87-1-1.37-1.88-2.76-2.79-4.16-1.77-2.74-3.49-5.51-5.33-8.19a51.13,51.13,0,0,0-7.32-8.94,7.59,7.59,0,0,0-8.19-1.55,7.45,7.45,0,0,0-4.61,6.86c.49,13,1.05,25.92,3.51,38.68.74,3.87,5.58,6.42,9.22,5.24,4.12-1.33,6-5.09,5.24-9.22Z"/></svg>