<svg id="Layer_1" data-name="Layer 1" xmlns="http://www.w3.org/2000/svg" viewBox="0 0 586.47 111.64"><defs><style>.cls-1{fill:#fff;}</style></defs><path class="cls-1" d="M.17,31.34Q5,61.78,10.62,92.06c.54,2.88,3.54,5,6.23,5.38a7.48,7.48,0,0,0,7.48-3.58L40.91,63,27.2,61.19C29.69,73.39,36.71,84,43.67,94.05c1.83,2.66,5.16,4.52,8.46,3.45a8.83,8.83,0,0,0,3.31-1.93c1.55-1.42,2-3.33,2.2-5.3q3.72-30.66,6.47-61.42a7.5,7.5,0,0,0-2.2-5.3,7.63,7.63,0,0,0-5.3-2.2c-4.36.2-7.13,3.3-7.5,7.5q-2.74,30.76-6.47,61.42l14-3.79C51.88,79.61,47.15,72.67,43.88,65l.76,1.79a52.34,52.34,0,0,1-3-9.55c-.58-2.88-3.49-5-6.23-5.37A7.46,7.46,0,0,0,28,55.41L11.38,86.29l13.7,1.79q-5.64-30.3-10.44-60.73a7.5,7.5,0,0,0-3.45-4.48,7.64,7.64,0,0,0-5.78-.76A7.6,7.6,0,0,0,.93,25.56a8.66,8.66,0,0,0-.76,5.78Z"/><path class="cls-1" d="M69.06,9.76q-.68,33-.3,66Q68.85,85,69,94.22c.08,3.92,3.39,7.68,7.5,7.5s7.58-3.3,7.5-7.5q-.65-33-.28-66,.1-9.26.3-18.49c.07-3.93-3.51-7.68-7.5-7.5a7.63,7.63,0,0,0-7.5,7.5Z"/><path class="cls-1" d="M82.3,64.59c1.47-1.65,2.94-3.31,4.57-4.81.4-.37.83-.72,1.24-1.08.61-.48.43-.34-.55.42l.67-.47a19.48,19.48,0,0,1,2.86-1.59l-1.79.76a14,14,0,0,1,3.31-.93l-2,.27a14.06,14.06,0,0,1,3.43,0l-2-.26a11.39,11.39,0,0,1,2.57.71l-1.79-.76c.41.19.78.41,1.17.62,1,.55-1.51-1.41-.22-.16.16.16.32.32.46.49q-1.17-1.6-.51-.63c.25.44.5.87.71,1.34l-.75-1.79a14.8,14.8,0,0,1,.87,3.34l-.27-2a61,61,0,0,1,.27,7.53q0,4.45,0,8.9Q94.4,83.28,94,92a7.55,7.55,0,0,0,7.5,7.5A7.66,7.66,0,0,0,109,92c.25-5.43.43-10.87.51-16.31.08-5.16.24-10.36,0-15.51-.31-6.28-2.35-12.22-7.91-15.72a18.63,18.63,0,0,0-15.63-1.4C80.1,45.25,75.75,49.4,71.7,54c-2.6,2.93-3.11,7.75,0,10.6,2.84,2.61,7.83,3.14,10.6,0Z"/><path class="cls-1" d="M127.49,54.65l.79-.66c.2-.16,1-.79.06-.05s0,0,.23-.16l.85-.58a22.23,22.23,0,0,1,3.42-1.87l-1.79.76A15.61,15.61,0,0,1,135,51l-2,.27a12.64,12.64,0,0,1,2.75,0l-2-.27a12.52,12.52,0,0,1,3,.82l-1.79-.76a10.53,10.53,0,0,1,1.2.63c.16.09.39.33.57.37-.27-.06-1.52-1.29-.62-.43.15.15.3.35.46.48.56.44-.9-1.35-.56-.73a13.18,13.18,0,0,1,.71,1.34l-.76-1.8a11.3,11.3,0,0,1,.55,2.13l-.27-2c.42,3.16.39,6.42.54,9.6l.48,10.18L138.16,91c.18,3.92,3.32,7.69,7.5,7.5,3.91-.17,7.7-3.3,7.5-7.5L151.7,59.67c-.26-5.37.23-11.69-3.07-16.27a17.42,17.42,0,0,0-14.82-7.2c-6.59.3-12,3.71-16.92,7.84a7.5,7.5,0,0,0,0,10.61c3.2,2.94,7.4,2.71,10.6,0Z"/><path class="cls-1" d="M150.45,64.65a19.74,19.74,0,0,0-6.82-6.44,21.78,21.78,0,0,0-9.07-2.47,23,23,0,0,0-8,1c-3.14,1-6.46,2.52-8.6,5.11-2.72,3.29-3.57,7-3.67,11.23a21,21,0,0,0,2.13,10.66c3.15,5.87,10.44,9.15,16.92,9a21.66,21.66,0,0,0,9.86-2.63A22.83,22.83,0,0,0,151,82.87a7.5,7.5,0,0,0-8.47-11A8.43,8.43,0,0,0,138,75.3c-.13.18-.26.37-.4.55l1.17-1.52A15.46,15.46,0,0,1,136,77.14L137.5,76a15.37,15.37,0,0,1-3,1.77l1.8-.76a14,14,0,0,1-3.35.93l2-.26a14.14,14.14,0,0,1-3.5,0l2,.27a14.84,14.84,0,0,1-3.51-1l1.79.76a13.18,13.18,0,0,1-2.74-1.6l1.52,1.17a11,11,0,0,1-1.5-1.47l1.17,1.51a9,9,0,0,1-1.1-1.87l.76,1.79a11.39,11.39,0,0,1-.66-2.63l.26,2a26.41,26.41,0,0,1,0-5.76l-.27,2a9.94,9.94,0,0,1,.62-2.47L129,72.2a8,8,0,0,1,.72-1.24l-1.17,1.51a8.35,8.35,0,0,1,1.23-1.22l-1.52,1.17a11.82,11.82,0,0,1,2.46-1.37l-1.79.75a19.63,19.63,0,0,1,4.46-1.21l-2,.27a17,17,0,0,1,4.09,0l-2-.27a14,14,0,0,1,3.53,1l-1.79-.75a12.92,12.92,0,0,1,2.35,1.38L136.08,71a13,13,0,0,1,2,2l-1.17-1.52c.2.26.39.52.58.79A8,8,0,0,0,142,75.67a7.68,7.68,0,0,0,5.78-.76c3.21-2.06,5.07-6.8,2.69-10.26Z"/><path class="cls-1" d="M167.53,14.05A312.24,312.24,0,0,0,165.43,51c0,6.09.1,12.19.3,18.28.21,6.41-.17,13.41,2.84,19.26,3.79,7.36,15.11,10.62,21.1,3.89,2.61-2.93,3.1-7.76,0-10.61-2.85-2.61-7.82-3.13-10.61,0-.23.27-1,.89.09,0s.31-.28,0-.13l1.79-.75a5.51,5.51,0,0,1-1.14.32l2-.26a6.61,6.61,0,0,1-1.54,0l2,.27a7.84,7.84,0,0,1-1.85-.53l1.79.76a7.34,7.34,0,0,1-1.13-.64c0,.06,1.76,1.38.54.34-.34-.39-.29-.31.16.24s.49.64.16.15-.5-.89-.71-1.37l.76,1.79a16,16,0,0,1-1-3.8l.27,2c-.49-4-.46-8.16-.59-12.22q-.21-6.54-.26-13.09c-.05-8.72.14-17.45.72-26.15q.48-7.39,1.38-14.74a7.46,7.46,0,0,0-2.2-5.3,7.48,7.48,0,0,0-10.6,0,8.67,8.67,0,0,0-2.2,5.3Z"/><path class="cls-1" d="M164.69,56.58q11.69-2.37,23.47-4.11c1.73-.25,3.65-2,4.49-3.44A7.53,7.53,0,0,0,190,38.76a8.8,8.8,0,0,0-5.78-.75q-11.79,1.74-23.48,4.11c-3.85.78-6.43,5.55-5.24,9.23a7.68,7.68,0,0,0,9.23,5.23Z"/><path class="cls-1" d="M231.94,16.81q-.48,19.41.31,38.83.41,9.67,1.12,19.34a67.25,67.25,0,0,0,1.08,9.71,15.81,15.81,0,0,0,6.22,9.57,12.79,12.79,0,0,0,10.67,1.55,12.34,12.34,0,0,0,5.11-3,11,11,0,0,0,3-7.2,7.49,7.49,0,0,0-7.5-7.5c-4.36.19-7.13,3.3-7.5,7.5l0,.26.26-2a3.64,3.64,0,0,1-.19.72l.76-1.79a1.75,1.75,0,0,1-.22.43c.05-.06,1.46-1.61.64-.87-.39.35,1.44-.85.93-.73a3.71,3.71,0,0,0-.56.29l1.79-.75a7.06,7.06,0,0,1-1.27.36l2-.27a6.84,6.84,0,0,1-1.63,0l2,.27a6.92,6.92,0,0,1-1.32-.34l1.8.76c-.25-.11-.49-.24-.73-.36-1-.51,1.76,1.44.49.31-.56-.5,1.11,1.68.3.37a9.06,9.06,0,0,1-.59-1.11l.76,1.79a16.09,16.09,0,0,1-1-3.94l.27,2c-.5-3.88-.66-7.82-.91-11.72-.28-4.22-.5-8.45-.69-12.67q-.54-12.69-.54-25.39,0-7.23.19-14.44a7.56,7.56,0,0,0-7.5-7.5,7.65,7.65,0,0,0-7.5,7.5Z"/><path class="cls-1" d="M264.85,8.12Q264.19,41,265.32,74q.33,9.3.79,18.62c.19,3.91,3.31,7.68,7.5,7.5,3.89-.18,7.71-3.31,7.5-7.5q-1.64-32.9-1.49-65.83,0-9.33.23-18.64a7.5,7.5,0,0,0-15,0Z"/><path class="cls-1" d="M277.76,68.11c.94-.93,1.92-1.83,2.93-2.69.55-.47,1.12-1,1.71-1.4-.24.18-1.28,1-.46.37l.89-.64a40.16,40.16,0,0,1,7-4.11l-1.79.76a15.27,15.27,0,0,1,3.3-1l-2,.27a10.28,10.28,0,0,1,2.54,0l-2-.27A9.74,9.74,0,0,1,292,60l-1.79-.75c.42.19.81.43,1.23.65,1.09.6-1.38-1.22-.39-.33.26.24.53.48.78.74s1.23,1.47.36.33.11.2.26.44.39.62.57.94a21.19,21.19,0,0,1,1.12,2.3l-.75-1.79a38.1,38.1,0,0,1,2.43,9.32l-.26-2c1,7.54.11,15.14-.79,22.65-.21,1.78,1,4.1,2.19,5.31A7.62,7.62,0,0,0,302.3,100a7.54,7.54,0,0,0,5.3-2.19,8.78,8.78,0,0,0,2.2-5.31c1.22-10.15,2.22-20.67-.74-30.65-1.45-4.87-3.83-10.11-7.93-13.33a16.85,16.85,0,0,0-9.64-3.9c-3.51-.23-6.89,1-10,2.45a54.38,54.38,0,0,0-14.33,10.46c-2.8,2.75-3,7.88,0,10.6a7.64,7.64,0,0,0,10.61,0Z"/><path class="cls-1" d="M323.94,73.64l14.25-2.26,6.88-1.1A12.53,12.53,0,0,0,349.31,69a8.53,8.53,0,0,0,4.37-6.41c.36-2.7-.54-5.53-1.29-8.11a34.21,34.21,0,0,0-3-7.31,19.92,19.92,0,0,0-11.66-9.53c-11.11-3-21.74,5.68-23.64,16.44a49.26,49.26,0,0,0,.22,16,28.4,28.4,0,0,0,5.5,13.08,20.76,20.76,0,0,0,14.54,8.24c5.13.54,11.23-1.6,14.45-5.75a8.21,8.21,0,0,0,2.2-5.31,7.63,7.63,0,0,0-2.2-5.3,7.53,7.53,0,0,0-5.3-2.2c-1.84.09-4.12.67-5.3,2.2-.22.27-.43.54-.68.8s-1.42,1.22-.27.31,0-.08-.25.07a11.12,11.12,0,0,1-1.1.53l1.79-.76a11.5,11.5,0,0,1-2.7.68l2-.26a12.58,12.58,0,0,1-2.81,0l2,.27a12,12,0,0,1-2.74-.75l1.8.76c-.92-.4-1.69-1-2.57-1.44,1,.82,1.24,1,.65.5l-.55-.49c-.32-.3-.62-.61-.91-.93-.48-.52-1-1.64.11.23-.25-.43-.58-.82-.84-1.24a21.71,21.71,0,0,1-1.4-2.71l.76,1.79a29.24,29.24,0,0,1-1.79-7l.27,2a42.16,42.16,0,0,1-.19-10.88l-.27,2a18,18,0,0,1,1.07-4l-.76,1.79a17,17,0,0,1,1.06-2.08c.2-.33.44-.64.64-1-1,1.71-.65.83-.19.33.26-.29.56-.54.83-.82.91-.92-1.52.94-.29.21A16.34,16.34,0,0,1,333,51.86l-1.79.76A12.5,12.5,0,0,1,334,51.9l-2,.27a11.42,11.42,0,0,1,2.41,0l-2-.27a10.62,10.62,0,0,1,2.64.7l-1.8-.76c.68.31,1.29.82,2,1.11-1-.8-1.23-1-.64-.47l.28.25a11.89,11.89,0,0,1,.93.95c1.06,1.2-.64-1-.22-.32.21.31.44.62.64.95a19.89,19.89,0,0,1,1.25,2.43l-.76-1.8a45.86,45.86,0,0,1,2.39,8l-.27-2a1.83,1.83,0,0,1,0,.66l.27-2L339,60l.76-1.79,2-2.07,1.79-.76a30.53,30.53,0,0,1-5.4,1l-6.14,1-12,1.91a7.49,7.49,0,0,0-4.48,3.45,7.49,7.49,0,0,0,2.69,10.26,8.61,8.61,0,0,0,5.78.75Z"/><path class="cls-1" d="M378.79,29.89q-2.48,25.17-2.59,50.49,0,7.19.13,14.37c.09,3.92,3.39,7.69,7.5,7.5s7.59-3.3,7.5-7.5q-.56-25.27,1.24-50.53.51-7.17,1.22-14.33a7.49,7.49,0,0,0-2.19-5.3,7.67,7.67,0,0,0-5.31-2.2,7.6,7.6,0,0,0-5.3,2.2,8.56,8.56,0,0,0-2.2,5.3Z"/><path class="cls-1" d="M387,35.11l22.89,1.12a7.56,7.56,0,0,0,7.5-7.5,7.67,7.67,0,0,0-7.5-7.5L387,20.11a7.56,7.56,0,0,0-7.5,7.5,7.67,7.67,0,0,0,7.5,7.5Z"/><path class="cls-1" d="M384.77,66.17a120.1,120.1,0,0,0,16.43.17,7.94,7.94,0,0,0,5.3-2.2,7.48,7.48,0,0,0,0-10.6,7.48,7.48,0,0,0-5.3-2.2,120.1,120.1,0,0,1-16.43-.17A7.5,7.5,0,0,0,379.46,64a8.43,8.43,0,0,0,5.31,2.2Z"/><path class="cls-1" d="M425.38,90.93c5.7-17.12,7.31-35.16,10.65-52.79,1-5,2.05-10,3.41-14.95L426.91,26.5c.25.23.55.7.84.86-.74-1-.89-1.19-.45-.56.11.17.22.34.32.52a20.78,20.78,0,0,1,1.16,2.37L428,27.9c7.15,17.23,13.31,35.27,15.87,53.81l-.27-2a122,122,0,0,1,1.12,16.65c0,3.92,3.46,7.68,7.5,7.5a7.63,7.63,0,0,0,7.5-7.5c.07-21.65-5.9-42.75-13.49-62.84q-1.58-4.16-3.22-8.27c-1.36-3.42-2.73-6.82-5.51-9.36-4.12-3.76-11-2.32-12.54,3.31-4.8,17.36-6.2,35.4-10.05,53a147.55,147.55,0,0,1-4,14.76,7.55,7.55,0,0,0,5.24,9.22,7.67,7.67,0,0,0,9.22-5.23Z"/><path class="cls-1" d="M423,78.75c7.3-.43,14.6-.92,21.9-1.35,3.91-.24,7.69-3.29,7.5-7.5-.17-3.87-3.3-7.75-7.5-7.5-7.3.43-14.6.92-21.9,1.35-3.91.24-7.69,3.29-7.5,7.5.17,3.87,3.31,7.75,7.5,7.5Z"/><path class="cls-1" d="M488.49,16.71a28.46,28.46,0,0,0-20.11,7.9c-5.84,5.53-8.35,13.29-8.83,21.14a56.27,56.27,0,0,0,.36,9.71,74.81,74.81,0,0,0,1.82,10.74c1.79,6.88,5.2,13.9,10.76,18.51,5.79,4.79,13.25,7.85,20.89,7.25a27.48,27.48,0,0,0,19.15-9.55A26.74,26.74,0,0,0,518,72.08a67.37,67.37,0,0,0,1.52-12.35c.43-6.38.35-13-1.62-19.15a38,38,0,0,0-14.12-19.4c-6.51-4.62-14.72-5.58-22.37-3.84a7.57,7.57,0,0,0-5.23,9.23,7.66,7.66,0,0,0,9.22,5.24c.75-.17,1.49-.31,2.25-.42l-2,.26a21.88,21.88,0,0,1,5.66,0l-2-.27a20.13,20.13,0,0,1,4.85,1.36L492.37,32a21.88,21.88,0,0,1,3.83,2.16c1.53,1.09-1.09-1-.14-.11.26.23.54.45.8.69.58.52,1.13,1.07,1.67,1.65s1,1.24,1.57,1.83c-1.49-1.63-.59-.78-.25-.3s.54.77.81,1.17a32.16,32.16,0,0,1,2.59,4.8l-.75-1.79a31.89,31.89,0,0,1,2.14,8l-.27-2a74.51,74.51,0,0,1-.5,18.81l.27-2a23.93,23.93,0,0,1-1.53,5.94l.76-1.79a19.56,19.56,0,0,1-1.76,3.16c-.13.2-.28.38-.42.58,1.22-1.8.75-1,.38-.52s-.81.9-1.24,1.32-.81.73-1.22,1.09c-1,.89,1.19-.84.51-.39-.25.16-.49.35-.75.51a21,21,0,0,1-3.2,1.73l1.79-.76a20.84,20.84,0,0,1-4.91,1.38l2-.27a22,22,0,0,1-5.44,0l2,.27a23.9,23.9,0,0,1-5.64-1.53l1.79.76a23.21,23.21,0,0,1-3.95-2.14c-.24-.16-1.43-1-.35-.21s.08,0-.15-.15c-.59-.51-1.16-1-1.7-1.62-.27-.3-.53-.59-.79-.9s-1-1.2-.16-.17.06,0-.11-.2-.44-.66-.65-1a32.39,32.39,0,0,1-2.18-4.22l.76,1.79a50.12,50.12,0,0,1-3.14-12.48l.27,2a54.19,54.19,0,0,1-.31-13.82l-.27,2a27.49,27.49,0,0,1,1.68-6.42l-.76,1.79a21.13,21.13,0,0,1,1.86-3.52l.53-.75c.46-.67-1.29,1.5-.37.5.42-.45.82-.92,1.26-1.36s.91-.83,1.38-1.23c.79-.68-.54.5-.65.49.11,0,.63-.44.76-.53a23.47,23.47,0,0,1,3.41-1.86l-1.79.76a22,22,0,0,1,5.33-1.49l-2,.26a21.6,21.6,0,0,1,3.32-.16,7.57,7.57,0,0,0,7.5-7.5,7.66,7.66,0,0,0-7.5-7.5Z"/><path class="cls-1" d="M479.64,67.06a142.41,142.41,0,0,1,9.66,17.7L488.54,83c2,4.68,3.58,9.42,6.52,13.61a121.67,121.67,0,0,1,7.45,11.34,7.5,7.5,0,1,0,13-7.57,80,80,0,0,0-5.73-9,45.42,45.42,0,0,1-5.39-9l.76,1.79c-1.86-4.51-3.61-9-5.89-13.35-2-3.87-4.33-7.62-6.62-11.36-2-3.35-6.81-4.91-10.26-2.69s-4.88,6.68-2.69,10.26Z"/><path class="cls-1" d="M539.09,37.64c.48-.44,1.38-.9-.39.24.31-.2.6-.42.91-.62a15.7,15.7,0,0,1,2-1l-1.79.76a15.94,15.94,0,0,1,3.54-.94l-2,.27a15,15,0,0,1,3.28,0l-2-.27a13.87,13.87,0,0,1,3.16.82l-1.8-.75a13,13,0,0,1,1.88,1c1.14.69-1.39-1.23-.4-.33a10.29,10.29,0,0,1,.76.72c.19.18.66.54.7.78l-.74-1c.13.19.27.38.39.58a14.28,14.28,0,0,1,1,1.85L546.79,38a13.07,13.07,0,0,1,.84,3l-.27-2a11.67,11.67,0,0,1,0,2.77l.27-2a11.91,11.91,0,0,1-.81,2.93l.75-1.79a26.11,26.11,0,0,1-2.12,3.56c1.15-1.78.48-.62.12-.19-.22.27-.45.54-.68.8-.46.54-.93,1.06-1.39,1.59A75.55,75.55,0,0,0,537.08,55c-4.16,6.38-6.15,14.06-4.43,21.58a7.56,7.56,0,0,0,9.23,5.23,7.66,7.66,0,0,0,5.24-9.22,16.75,16.75,0,0,1-.31-1.72l.26,2a18.71,18.71,0,0,1,.07-4.36l-.26,2a23,23,0,0,1,1.42-5.09l-.75,1.8a31.3,31.3,0,0,1,3.22-5.73c.33-.47.66-1,1-1.42-.08.09-1.15,1.44-.37.48l.42-.51c.74-.91,1.5-1.81,2.28-2.69,3.34-3.82,7.06-8,7.93-13.18a19,19,0,0,0-3.16-14.61,19.86,19.86,0,0,0-6.23-5.77,20.53,20.53,0,0,0-8.26-2.41A21.18,21.18,0,0,0,528.48,27a7.57,7.57,0,0,0,0,10.61,7.67,7.67,0,0,0,10.61,0Z"/><path class="cls-1" d="M544.59,101.16c3.92,0,7.68-3.45,7.5-7.5a7.63,7.63,0,0,0-7.5-7.5c-3.92,0-7.68,3.45-7.5,7.5a7.63,7.63,0,0,0,7.5,7.5Z"/><path class="cls-1" d="M571.44,7.5a372.24,372.24,0,0,0-3,54c.07,3.92,3.4,7.68,7.5,7.5a7.63,7.63,0,0,0,7.5-7.5,372.24,372.24,0,0,1,3-54c.23-1.76-1-4.1-2.19-5.3a7.5,7.5,0,0,0-10.61,0,8.82,8.82,0,0,0-2.2,5.3Z"/><path class="cls-1" d="M575.65,90.27c3.92,0,7.68-3.45,7.5-7.5a7.63,7.63,0,0,0-7.5-7.5c-3.92,0-7.68,3.45-7.5,7.5a7.63,7.63,0,0,0,7.5,7.5Z"/><path class="cls-1" d="M226.21,53.27A249.8,249.8,0,0,0,256,47.89a7.57,7.57,0,0,0,5.24-9.22A7.66,7.66,0,0,0,252,33.43a235.12,235.12,0,0,1-24.85,4.74l2-.27-2.9.37a8.18,8.18,0,0,0-5.3,2.2,7.48,7.48,0,0,0,0,10.6c1.36,1.25,3.38,2.44,5.3,2.2Z"/></svg>