<svg id="Layer_1" data-name="Layer 1" xmlns="http://www.w3.org/2000/svg" viewBox="0 0 491.59 112.82"><defs><style>.cls-1{fill:#ec941a;}</style></defs><path class="cls-1" d="M143.88,28.77a181.87,181.87,0,0,1,4,22.09l-.27-2q1.35,10.17,2.31,20.41.41,4.23.74,8.47a53.75,53.75,0,0,1,.13,10.76l.27-2a19.44,19.44,0,0,1-1.27,4.8l.75-1.79A20,20,0,0,1,149.15,92c-.45.61-.28.4.5-.64-.16.19-.32.38-.49.56s-.59.62-.91.91c-.56.51-1.62.92.22-.11-.37.21-.71.5-1.08.73a19.63,19.63,0,0,1-2.49,1.3l1.79-.76a22.05,22.05,0,0,1-5.45,1.5l2-.26a32.2,32.2,0,0,1-8.38-.12l2,.26a68.94,68.94,0,0,1-7.9-1.68c-3.79-1-8.32,1.26-9.23,5.24a7.64,7.64,0,0,0,5.24,9.23,58.43,58.43,0,0,0,14.61,2.3,30.86,30.86,0,0,0,13.75-3.15A22.07,22.07,0,0,0,163,98a29.3,29.3,0,0,0,3-14.16c-.1-6-.83-12-1.43-18q-1.1-10.89-2.62-21.73a167.15,167.15,0,0,0-3.59-19.37c-1-3.79-5.4-6.48-9.23-5.24a7.64,7.64,0,0,0-5.23,9.22Z"/><path class="cls-1" d="M173.79,53.33c-3,4.54-2.93,10.1-3,15.32l-.11,7.6a52.69,52.69,0,0,0,.1,7.11,17.72,17.72,0,0,0,3.33,9.17,12.94,12.94,0,0,0,7.77,5.09c5.4,1,11.15-.49,15.88-3.17a27,27,0,0,0,10.72-11.12c1.75-3.5,1.05-8.28-2.69-10.26-3.4-1.79-8.39-1-10.27,2.69-.37.76-1,2.35-1.71,2.84.1-.06,1.17-1.41.5-.64-.21.23-.4.47-.61.7-.37.41-.76.8-1.16,1.18s-.75.64-1.12,1c1.76-1.6.45-.36-.12,0a21.3,21.3,0,0,1-3.09,1.65l1.79-.75a20.74,20.74,0,0,1-5,1.37l2-.27a13.76,13.76,0,0,1-2.94.1l2,.26a7,7,0,0,1-1.62-.42l1.79.76c-.32-.15-.61-.36-.93-.52,1.35.66,1.11.9.45.23-.88-.87.88,1.55.3.36-.16-.33-.35-.64-.5-1l.75,1.79a12.41,12.41,0,0,1-.78-2.82l.27,2c-.47-3.62-.13-7.38-.08-11,.06-3.49-.08-7,.33-10.51l-.27,2a14.17,14.17,0,0,1,.93-3.52L186,62.32a12.26,12.26,0,0,1,.79-1.42,7.55,7.55,0,0,0-2.69-10.26,7.67,7.67,0,0,0-10.26,2.69Z"/><path class="cls-1" d="M194,58.19a305.56,305.56,0,0,1,1.43,37.42,7.56,7.56,0,0,0,7.5,7.5,7.64,7.64,0,0,0,7.5-7.5A305.56,305.56,0,0,0,209,58.19a8.13,8.13,0,0,0-2.19-5.31,7.6,7.6,0,0,0-5.31-2.19c-3.73.16-7.91,3.32-7.5,7.5Z"/><path class="cls-1" d="M232.15,92,228.3,55,217,61.48a47.81,47.81,0,0,1,4.48,2.78c-2.07-1.36-.63-.49-.15-.09s.71.61,1.06.92c.61.54,1.21,1.11,1.79,1.68a91.74,91.74,0,0,1,6.9,8c2.2,2.78,4.36,5.6,6.72,8.26a55.18,55.18,0,0,0,9.09,8.18c2.11,1.53,5.42,1.25,7.57,0a7.56,7.56,0,0,0,3.71-6.48q-.14-17.25-.64-34.49c-.12-3.92-3.37-7.69-7.5-7.5-4,.17-7.63,3.3-7.5,7.5q.51,17.24.64,34.49l11.29-6.47c-.5-.36-1.76-1.55.09.1-.35-.31-.73-.6-1.09-.91-.63-.54-1.25-1.1-1.84-1.67-1.29-1.24-2.51-2.55-3.69-3.9-2.33-2.68-4.48-5.5-6.7-8.28-4.67-5.87-9.87-11.57-16.66-15a7.68,7.68,0,0,0-7.57,0c-2.1,1.23-4,3.92-3.71,6.47l3.85,37a8.1,8.1,0,0,0,2.19,5.3,7.67,7.67,0,0,0,5.31,2.2c3.71-.17,7.93-3.32,7.5-7.5Z"/><path class="cls-1" d="M296.59,46.76A22.2,22.2,0,0,0,289,42.57a20.17,20.17,0,0,0-20.94,6.09c-3.29,4.08-5.46,9.2-4.94,14.53a16.51,16.51,0,0,0,3.81,9.49,15.33,15.33,0,0,0,7.86,4.5c4.66,1.18,9.46.79,14.19,1.37l-2-.27a17.43,17.43,0,0,1,4.08,1l-1.79-.76a13.73,13.73,0,0,1,1.38.7c.17.1.65.3.73.48-.09-.18-1.52-1.28-.57-.37.17.16.31.33.47.49.62.6-1.06-1.58-.45-.59a11.48,11.48,0,0,1,.8,1.46l-.76-1.79a11.62,11.62,0,0,1,.74,2.59l-.27-2a13,13,0,0,1,0,3.41l.27-2a13.43,13.43,0,0,1-.85,3l.76-1.8c-.34.76-.86,1.4-1.22,2.14.72-1.49.81-1,.23-.36-.3.32-.61.62-.93.91-1.25,1.13,1.35-.87.21-.12-.31.2-.62.42-.94.62a18.49,18.49,0,0,1-2.35,1.19l1.79-.76A20.72,20.72,0,0,1,283.57,87l2-.27a19.84,19.84,0,0,1-4.87,0l2,.26a17.92,17.92,0,0,1-4.32-1.16l1.79.76a18.06,18.06,0,0,1-2-1c-.16-.09-.95-.48-1-.65,0,.19,1.63,1.37.49.33-.24-.22-.48-.45-.7-.69-1.08-1.16.22.5.33.49-.3,0-1.06-1.82-1.16-2a7.51,7.51,0,0,0-4.48-3.45,7.68,7.68,0,0,0-5.78.76,7.54,7.54,0,0,0-3.44,4.48,8.59,8.59,0,0,0,.75,5.78c2.43,5.42,8.12,9.19,13.77,10.53a26.74,26.74,0,0,0,18.48-2.34A22.29,22.29,0,0,0,303.15,92a19.1,19.1,0,0,0,3.24-9.38A17.1,17.1,0,0,0,297.78,66c-5.92-3.15-12.42-2.33-18.82-3.17l2,.27a17.54,17.54,0,0,1-4.1-1.06l1.79.75c-.09,0-1.11-.47-1.11-.59,0,.33,1.54,1.06.4.27-.26-.28-.19-.17.22.33s.46.62.14.15-.37-.65-.52-1l.75,1.8a11.22,11.22,0,0,1-.61-2.2l.27,2a13.1,13.1,0,0,1,0-3.31l-.27,2a14.29,14.29,0,0,1,.87-3.15L278,60.89A14.22,14.22,0,0,1,279,59c.19-.31.44-.6.62-.91-1.07,1.85-.63.81-.12.27.26-.26.52-.52.79-.76,1.18-1-1,.68-.37.28A18.44,18.44,0,0,1,282,56.68l-1.79.76a13.43,13.43,0,0,1,3.23-.87l-2,.27a15.1,15.1,0,0,1,3.36,0l-2-.26a14,14,0,0,1,3.6,1l-1.8-.76c.46.21.9.43,1.33.68s2,1.43,0-.11a8.13,8.13,0,0,0,5.3,2.2,7.66,7.66,0,0,0,5.31-2.2,7.54,7.54,0,0,0,2.19-5.3c-.08-1.86-.67-4.09-2.19-5.3Z"/><path class="cls-1" d="M304.19,11.89c.41,2.78.8,5.55,1.17,8.33l-.27-2q4.11,30.51,5.52,61.31.4,8.76.58,17.54c.08,3.92,3.39,7.69,7.5,7.5s7.58-3.3,7.5-7.5q-.72-34.36-4.79-68.54Q320.17,18.2,318.65,7.9c-.25-1.72-2-3.64-3.44-4.48a7.63,7.63,0,0,0-5.78-.75A7.53,7.53,0,0,0,305,6.11a8.74,8.74,0,0,0-.76,5.78Z"/><path class="cls-1" d="M322.63,65.72c-1.86,1.48-.23.19.19-.1l1.08-.69a22.13,22.13,0,0,1,2.66-1.35l-1.79.76a16.62,16.62,0,0,1,3.67-1l-2,.27a13.5,13.5,0,0,1,3.42,0l-2-.27a12.72,12.72,0,0,1,2.91.82l-1.8-.76c.52.24,1,.55,1.48.81.72.37-1.18-1.07-.62-.5l.68.65c.82.78-.51-.57-.43-.62s.4.59.43.64a13.86,13.86,0,0,1,.87,1.72l-.76-1.79a28.2,28.2,0,0,1,1.49,6.54l-.27-2q1.82,13.75,3.61,27.5c.28,2.07.66,3.77,2.2,5.31a7.52,7.52,0,0,0,10.61,0c1.24-1.36,2.45-3.39,2.19-5.31q-1.79-13.65-3.58-27.31c-.67-5-1.47-9.82-4.66-14a17.77,17.77,0,0,0-14.06-6.62c-6.15,0-11.46,2.91-16.13,6.63a7.48,7.48,0,0,0-2.19,5.3,7.6,7.6,0,0,0,2.19,5.3,7.53,7.53,0,0,0,5.31,2.2,8.64,8.64,0,0,0,5.3-2.2Z"/><path class="cls-1" d="M353.46,55.69c1,14.41,2.63,28.78,3.67,43.19a7.94,7.94,0,0,0,2.2,5.3,7.63,7.63,0,0,0,5.3,2.2c3.82-.17,7.8-3.31,7.5-7.5-1-14.41-2.63-28.78-3.67-43.19a8,8,0,0,0-2.2-5.3,7.55,7.55,0,0,0-5.3-2.2c-3.82.17-7.8,3.31-7.5,7.5Z"/><path class="cls-1" d="M359.43,43.43c4.71,0,9.22-4.14,9-9a9.16,9.16,0,0,0-9-9c-4.71,0-9.22,4.14-9,9a9.16,9.16,0,0,0,9,9Z"/></svg>