<svg id="Layer_1" data-name="Layer 1" xmlns="http://www.w3.org/2000/svg" viewBox="0 0 509.17 110.44"><defs><style>.cls-1{fill:#fff;}</style></defs><path class="cls-1" d="M204.72,9.5c.41,2.77.8,5.55,1.17,8.32l-.27-2q4.11,30.51,5.52,61.3.41,8.78.58,17.55c.08,3.92,3.39,7.68,7.5,7.5s7.58-3.3,7.5-7.5q-.72-34.37-4.79-68.55-1.23-10.32-2.75-20.62c-.25-1.73-2-3.64-3.44-4.48A7.68,7.68,0,0,0,210,.27a7.59,7.59,0,0,0-4.49,3.45,8.79,8.79,0,0,0-.75,5.78Z"/><path class="cls-1" d="M223.16,63.33c-1.86,1.48-.23.19.19-.1s.72-.47,1.08-.69a20.76,20.76,0,0,1,2.66-1.35L225.3,62a17.21,17.21,0,0,1,3.67-1l-2,.27a14,14,0,0,1,3.42,0l-2-.27a13.4,13.4,0,0,1,2.91.82L229.5,61c.52.24,1,.55,1.48.8.72.37-1.19-1.07-.62-.49L231,62c.82.78-.51-.58-.43-.62s.4.59.43.64a12.55,12.55,0,0,1,.86,1.72l-.75-1.79a28.09,28.09,0,0,1,1.49,6.54l-.27-2Q234.19,80.22,236,94c.27,2.07.66,3.77,2.2,5.3a7.5,7.5,0,0,0,10.61,0C250,97.93,251.23,95.9,251,94q-1.78-13.65-3.58-27.31c-.67-5-1.47-9.83-4.66-14a17.74,17.74,0,0,0-14.06-6.62c-6.16,0-11.46,2.91-16.13,6.62A7.52,7.52,0,0,0,210.36,58a7.49,7.49,0,0,0,7.5,7.5,8.7,8.7,0,0,0,5.3-2.2Z"/><path class="cls-1" d="M202.31,46.07c-2.66-2.18-5.35-4.47-8.51-5.91-4.11-1.87-8.63-2.74-13.08-1.54-6.88,1.85-11.28,8.36-12.39,15.14a41.75,41.75,0,0,0-.46,10.65c.37,4,1,8,2.93,11.62,3.26,6.15,10.72,9.88,17.58,9.34a21,21,0,0,0,18.21-14.6c1.25-3.72-1.44-8.36-5.24-9.23a7.68,7.68,0,0,0-9.22,5.24c-.11.34-.24.67-.37,1l.76-1.79a14.5,14.5,0,0,1-1.17,2.2c-.43.65-1,.91.32-.37-.3.29-.55.64-.84.94s-.61.57-.92.86c-.93.85,1.53-1,.37-.31a18.11,18.11,0,0,1-2.21,1.2l1.79-.75a13.45,13.45,0,0,1-3.12.84l2-.27a13.18,13.18,0,0,1-3.2,0l2,.27a13.62,13.62,0,0,1-3.07-.87l1.79.76a12.8,12.8,0,0,1-1.56-.81c-.27-.17-1.16-.84-.1,0s.15.1,0-.08S183.12,67.9,184,69s.13.11,0-.17-.39-.74-.57-1.13l.76,1.8a21.91,21.91,0,0,1-1.36-5.41l.27,2a38.09,38.09,0,0,1-.1-9.66l-.26,2a20.13,20.13,0,0,1,1.32-5l-.75,1.79A15.33,15.33,0,0,1,184,53.7c.15-.24.31-.46.46-.7.38-.6-1.34,1.46-.45.62.3-.28,1.58-1.4.46-.53s-.22.19.07,0a7.69,7.69,0,0,1,.91-.45l-1.79.75a10.25,10.25,0,0,1,2-.55l-2,.27a11.81,11.81,0,0,1,3,0l-2-.27a15.16,15.16,0,0,1,3.29,1l-1.79-.76a21.85,21.85,0,0,1,3.48,2l.69.49c1,.72.12,0-.34-.27a11,11,0,0,1,1.64,1.34A8.13,8.13,0,0,0,197,58.87a7.62,7.62,0,0,0,5.3-2.19c2.52-2.75,3.24-8,0-10.61Z"/><path class="cls-1" d="M127.22,38.31q1,23.4,0,46.84a7.55,7.55,0,0,0,7.5,7.5,7.66,7.66,0,0,0,7.5-7.5q1-23.4,0-46.84c-.16-3.92-3.33-7.69-7.5-7.5-3.92.17-7.68,3.3-7.5,7.5Z"/><path class="cls-1" d="M143.07,52.22a6.51,6.51,0,0,1,.33-1.06l-.76,1.8a8.13,8.13,0,0,1,1-1.6l-1.17,1.52a13.17,13.17,0,0,1,2.05-2L143,52.08a19.85,19.85,0,0,1,3.93-2.24l-1.79.76a19.7,19.7,0,0,1,4.77-1.35l-2,.27a12.13,12.13,0,0,1,3,0l-2-.27a11.83,11.83,0,0,1,2.49.64l-1.8-.76a8.86,8.86,0,0,1,1.91,1.1L150,49a8.21,8.21,0,0,1,.89.88l-1.18-1.52a7.22,7.22,0,0,1,.86,1.44l-.76-1.79a9.86,9.86,0,0,1,.58,2.32l-.27-2a24.18,24.18,0,0,1,.08,3.51,7.57,7.57,0,0,0,7.5,7.5,7.66,7.66,0,0,0,7.5-7.5,22,22,0,0,0-.69-7.19,14.19,14.19,0,0,0-5.67-7.63c-3.86-2.68-8.7-3-13.18-2.25a24.69,24.69,0,0,0-9.32,3.67c-3.48,2.28-6.78,5.53-7.71,9.74-.84,3.82,1.15,8.29,5.24,9.23,3.8.86,8.32-1.15,9.23-5.24Z"/><path class="cls-1" d="M86.72,66.46a55.38,55.38,0,0,0,18.48,0,42.9,42.9,0,0,0,7.25-1.88c3.52-1.25,7-2.83,8.94-6.24,2-3.6,1.56-7.32,1-11.2a24.69,24.69,0,0,0-2.56-8.25,20.87,20.87,0,0,0-13-9.86c-11-2.8-22.7,3.56-27.44,13.63a33,33,0,0,0,1.86,31c6,9.84,16.35,16.26,27.29,19.27,3.78,1,8.33-1.29,9.23-5.24a7.65,7.65,0,0,0-5.24-9.23,49.14,49.14,0,0,1-5.92-2l1.79.75a44.13,44.13,0,0,1-5.57-2.83c-.89-.54-1.76-1.11-2.6-1.72-.07,0-.63-.39-.63-.46s1.45,1.16.6.46c-.44-.37-.89-.74-1.32-1.13-.77-.69-1.51-1.41-2.21-2.16-.35-.38-.7-.77-1-1.16l-.49-.6c-.58-.69,1,1.35.47.6a33.48,33.48,0,0,1-3.2-5.57l.76,1.79a28.23,28.23,0,0,1-1.94-7.16l.27,2a26.34,26.34,0,0,1,0-6.58l-.27,2a23.18,23.18,0,0,1,1.52-5.55L92,50.89a21.87,21.87,0,0,1,1.63-3.06c.14-.22.29-.42.43-.63.69-1-1,1.13-.36.45.38-.43.74-.87,1.14-1.28s.73-.72,1.12-1c.17-.15,1.2-1,.13-.14s-.22.18,0,0a18.26,18.26,0,0,1,3.15-1.74l-1.79.76a17,17,0,0,1,4-1.1l-2,.27a15.48,15.48,0,0,1,3.6,0l-2-.27a15.63,15.63,0,0,1,3.79,1l-1.8-.76a16,16,0,0,1,2.06,1.06c.61.39,1.34,1.29-.22-.25.25.25.54.45.8.69s.5.5.73.76.31.35.46.54l-.75-1c.45.14,1.06,1.86,1.23,2.23l-.76-1.79a28.74,28.74,0,0,1,1.5,6.68l-.27-2a13.48,13.48,0,0,1,.11,2.46l.26-2a6.47,6.47,0,0,1-.25,1.16l.75-1.79a4.7,4.7,0,0,1-.35.71l.72-.94q-.61.55.21-.12c1-.76.26-.23,0-.09s-.55.28-.83.41l1.79-.76a42.77,42.77,0,0,1-10.36,2.77l2-.27a45.26,45.26,0,0,1-11.8,0l2,.27L90.71,52a8.12,8.12,0,0,0-5.78.76A7.49,7.49,0,0,0,82.24,63c1,1.53,2.59,3.14,4.48,3.44Z"/><path class="cls-1" d="M14.65,88.62c2.24-16.11,3.86-32.29,4.69-48.54l-14,3.79A162.79,162.79,0,0,0,30.91,76.29a7.6,7.6,0,0,0,11.78-1.52L66.34,37.41l-14-3.79q3.55,27,7.09,54c.27,2.07.66,3.77,2.2,5.31a7.52,7.52,0,0,0,10.61,0c1.24-1.36,2.44-3.39,2.19-5.31q-3.54-27-7.09-54a8.52,8.52,0,0,0-1.61-4.54,7.16,7.16,0,0,0-3.89-2.69,7.78,7.78,0,0,0-8.47,3.45Q41.56,48.52,29.74,67.2l11.78-1.52A154.48,154.48,0,0,1,28.47,51.19l-.69-.87c-.57-.72,1,1.34.23.29l-1.6-2.13q-1.44-2-2.83-4-2.76-4-5.26-8.21a7.63,7.63,0,0,0-8.47-3.45,7.79,7.79,0,0,0-5.51,7.23Q3.22,62,.32,83.7l.26-2c-.13,1-.26,2-.4,2.93-.29,2.09-.35,3.88.76,5.78a7.63,7.63,0,0,0,4.48,3.45,7.62,7.62,0,0,0,5.78-.76c1.52-1,3.18-2.6,3.45-4.48Z"/><path class="cls-1" d="M328,35.81c-1.37-7.37-8.09-13.7-15.36-15.18a22.71,22.71,0,0,0-21.29,7.1c-6,6.73-8.12,16.34-3.54,24.43,3.31,5.82,9.28,9.59,15.23,12.25a74.19,74.19,0,0,1,8.86,4.35c.32.19.63.4.94.61.57.38,1.65,1.54,0-.08.58.55,1.22,1,1.77,1.6.21.22.41.46.62.68.49.59.33.37-.48-.65.15.2.3.4.44.61a14.59,14.59,0,0,1,1.25,2.34l-.76-1.79a15.9,15.9,0,0,1,1,3.65l-.27-2a16.57,16.57,0,0,1,0,3.79l.26-2a15.33,15.33,0,0,1-.95,3.65l.75-1.79a12.79,12.79,0,0,1-1.15,2.16c-.91,1.39,1.12-1.18.19-.21-.25.26-.48.53-.74.79s-.55.47-.81.73c1.53-1.52.9-.67.36-.31a15.1,15.1,0,0,1-2.23,1.22L313.9,81a15,15,0,0,1-3.83,1l2-.26a14.62,14.62,0,0,1-3.24,0l2,.27a13.24,13.24,0,0,1-3.09-.85l1.79.76a19,19,0,0,1-2.17-1.19c-1.15-.69,1.36,1.22.39.31-.31-.28-.62-.55-.91-.85s-.75-.62-.83-.92l.74,1c-.14-.19-.28-.38-.4-.58a13.06,13.06,0,0,1-1.15-2.19l.75,1.79a13.59,13.59,0,0,1-.79-3.07l.26,2c0-.24,0-.47-.06-.71a7.92,7.92,0,0,0-2.2-5.3,7.63,7.63,0,0,0-5.3-2.2c-3.82.17-7.8,3.31-7.5,7.5a20.86,20.86,0,0,0,14.39,18.54c7.34,2.39,16.37-.29,21.41-6.1a22.06,22.06,0,0,0,2.94-24.35c-3.06-6.33-9.49-10.13-15.65-12.9a64.28,64.28,0,0,1-9-4.52c-.31-.2-.62-.41-.92-.63-1.57-1.12,1,.9.06.06-.54-.48-1.09-1-1.59-1.47-.25-.25-.48-.52-.73-.78-.85-.92,1.16,1.68.11.12a13.81,13.81,0,0,1-1.17-2.13l.75,1.79a12.93,12.93,0,0,1-.84-3.13l.27,2a13.33,13.33,0,0,1,0-3l-.27,2a15.24,15.24,0,0,1,1-3.69l-.76,1.79A22,22,0,0,1,302,38.29c.45-.62.28-.41-.5.62.16-.2.32-.39.49-.57.29-.33.6-.65.91-1s.7-.56,1-.88c-1,.78-1.24.94-.63.49.21-.15.41-.29.62-.42a16.72,16.72,0,0,1,2.65-1.39l-1.79.75a16.49,16.49,0,0,1,3.58-1l-2,.27a14.38,14.38,0,0,1,3.65,0L308,35a14,14,0,0,1,3,.83l-1.79-.75a13.69,13.69,0,0,1,2.18,1.14c.58.37,1.12,1.08-.37-.36.29.29.62.53.92.81s.56.59.84.89c.86.91-1-1.54-.32-.42a17.57,17.57,0,0,1,1.16,2.13l-.76-1.79a11.84,11.84,0,0,1,.68,2.34c.72,3.86,5.6,6.41,9.23,5.24,4.13-1.34,6-5.09,5.23-9.23Z"/><path class="cls-1" d="M344.05,18.35q-1.77,24-2.25,48.11c-.15,7.78-.42,15.63-.1,23.41a31.76,31.76,0,0,0,3,13.2,13.19,13.19,0,0,0,12.7,7.33c10.12-.77,17.94-9.56,18.17-19.59a7.56,7.56,0,0,0-7.5-7.5,7.66,7.66,0,0,0-7.5,7.5,13.36,13.36,0,0,1-.1,1.42l.27-2a13.42,13.42,0,0,1-.84,3.07l.75-1.79a14.2,14.2,0,0,1-1.08,2c-.9,1.38,1.12-1.22.22-.24-.24.27-.47.54-.72.79s-.51.49-.78.73c-1,.9,1.47-1,.39-.31a17.54,17.54,0,0,1-2.18,1.17l1.79-.76a12,12,0,0,1-2.49.69l2-.27a8.58,8.58,0,0,1-2.32,0l2,.27a8.53,8.53,0,0,1-1.1-.3l1.79.76c-.35-.15-.67-.38-1-.53.92.76,1.18.94.77.54s-.21-.16.55.77c-.27-.73-.85-1.44-1.17-2.16l.75,1.79a21.55,21.55,0,0,1-1.34-5.07l.27,2c-.61-4.63-.38-9.38-.36-14q0-7.34.19-14.65.32-14.78,1.13-29.52.46-8.43,1.09-16.85c.29-3.92-3.66-7.67-7.5-7.5a7.68,7.68,0,0,0-7.5,7.5Z"/><path class="cls-1" d="M335.38,60c10.65-.43,21.49-.93,31.77-4,3.75-1.12,6.5-5.32,5.23-9.23s-5.19-6.44-9.22-5.24A77.29,77.29,0,0,1,351.7,44l2-.27c-6.07.8-12.19,1.06-18.31,1.31-3.92.15-7.69,3.33-7.5,7.5.18,3.93,3.3,7.66,7.5,7.5Z"/><path class="cls-1" d="M425.34,39.93v43.6c0,3.92,3.45,7.68,7.5,7.5a7.64,7.64,0,0,0,7.5-7.5V39.93c0-3.92-3.45-7.68-7.5-7.5a7.64,7.64,0,0,0-7.5,7.5Z"/><path class="cls-1" d="M442.18,55.78a13.54,13.54,0,0,1,1.38-2.2l-1.17,1.51a14.56,14.56,0,0,1,2.45-2.45l-1.52,1.17a14.46,14.46,0,0,1,3-1.77l-1.79.75a14,14,0,0,1,3.48-1l-2,.27a12,12,0,0,1,2.93,0l-2-.27a10.33,10.33,0,0,1,2.17.62l-1.79-.76a8.25,8.25,0,0,1,1.54.92l-1.51-1.17a8.79,8.79,0,0,1,1.22,1.22l-1.18-1.52a7.36,7.36,0,0,1,.87,1.48l-.75-1.79a7.85,7.85,0,0,1,.39,1.36l-.27-2a7.2,7.2,0,0,1,.06,1.14,7.56,7.56,0,0,0,7.5,7.5,7.66,7.66,0,0,0,7.5-7.5,13.68,13.68,0,0,0-5.5-11.09A15.75,15.75,0,0,0,446,37.09a20.47,20.47,0,0,0-9.79,3.42,21.89,21.89,0,0,0-7,7.7,8,8,0,0,0-.75,5.78,7.65,7.65,0,0,0,3.44,4.48c3.43,1.81,8.36,1,10.27-2.69Z"/><path class="cls-1" d="M395.87,38.45A21.94,21.94,0,0,0,388,40.69a23.84,23.84,0,0,0-5.38,3.86A28.41,28.41,0,0,0,375.26,56c-3.32,9.31,1.05,20,8.43,26.09a22.58,22.58,0,0,0,7.75,4.42,18,18,0,0,0,9.44.11A26.2,26.2,0,0,0,413,79.58a27.34,27.34,0,0,0,7-12,22.74,22.74,0,0,0-.4-13.61,25,25,0,0,0-10-12.39,21.88,21.88,0,0,0-15.77-2.87,7.55,7.55,0,0,0-4.49,3.45,7.51,7.51,0,0,0,2.69,10.26,8.5,8.5,0,0,0,5.78.76c.23,0,.46-.08.69-.11l-2,.26a13.9,13.9,0,0,1,3.41,0l-2-.27a15.52,15.52,0,0,1,3.6,1l-1.79-.75a16.87,16.87,0,0,1,2.58,1.39c.19.13.37.27.57.4.71.47-1.33-1.12-.7-.54.39.35.79.68,1.16,1.06s.64.67,1,1c.66.73-.47-.58-.52-.7a3.15,3.15,0,0,0,.41.57,16.54,16.54,0,0,1,1.5,2.74L405,57.48a15.66,15.66,0,0,1,1,3.67l-.27-2a17.27,17.27,0,0,1,0,4.31l.27-2a19.18,19.18,0,0,1-1.25,4.5l.76-1.79a20.38,20.38,0,0,1-1.71,3.19c-.17.25-.36.5-.52.75-.45.67,1.29-1.53.39-.51-.41.46-.8.92-1.23,1.35s-.89.84-1.35,1.24c-.75.67.52-.44.66-.49a4.49,4.49,0,0,0-.74.54,20.22,20.22,0,0,1-3.36,1.83l1.8-.76a16.83,16.83,0,0,1-3.88,1.09l2-.27a11.48,11.48,0,0,1-2.62,0l2,.27a11.81,11.81,0,0,1-2.61-.75l1.79.75a14,14,0,0,1-1.39-.71c-.23-.14-1.27-.63-1.32-.88,0,.06,1.39,1.16.58.43l-.59-.53c-.44-.41-.86-.83-1.27-1.27l-.54-.61c-.17-.2-.79-1-.06,0s.13.16,0-.06-.32-.44-.47-.67a21.59,21.59,0,0,1-1.64-3l.75,1.79A17.83,17.83,0,0,1,389,62.6l.27,2a14.15,14.15,0,0,1,0-3.62L389,63A17,17,0,0,1,390.11,59l-.76,1.8a21.48,21.48,0,0,1,1.7-3.17c.21-.33,1.31-1.81.47-.72s-.09.15.11-.09.4-.45.61-.67c.37-.39.76-.77,1.16-1.13.22-.2.45-.39.68-.58.67-.58-1.54,1.07-.54.42a19.33,19.33,0,0,1,3-1.66l-1.79.76a13.08,13.08,0,0,1,2.82-.77l-2,.27.32,0a8.16,8.16,0,0,0,5.3-2.2,7.5,7.5,0,0,0,0-10.61c-1.36-1.25-3.37-2.42-5.3-2.19Z"/><path class="cls-1" d="M477.47,73.71c1.07-.53,2.16-1,3.26-1.51l-1.79.76A57.15,57.15,0,0,1,493.17,69l-2,.26a59.36,59.36,0,0,1,6.25-.5c1,0,1.95,0,2.91,0A9.58,9.58,0,0,0,506.75,66c4.35-4.33,1.94-11.19-.34-15.92a25.57,25.57,0,0,0-2.62-4.19,32.91,32.91,0,0,0-4.72-5.48c-3.91-3.29-8.8-5.67-14-5.4A18.82,18.82,0,0,0,471.18,42a29.85,29.85,0,0,0-5.95,12.39,37.41,37.41,0,0,0,4.12,25.83c4.56,8.15,12,14.59,20.06,19.09,3.43,1.9,8.34.94,10.26-2.7s1-8.22-2.69-10.26a54.5,54.5,0,0,1-5.66-3.58c-.21-.16-.42-.32-.64-.47-.85-.63.46.44.58.45-.38,0-1.07-.88-1.37-1.13-.84-.73-1.67-1.48-2.46-2.27S486,77.79,485.29,77l-.63-.75c-.17-.21-.78-1,0,0s-.26-.37-.46-.66a33.58,33.58,0,0,1-3.35-6l.75,1.79a31.93,31.93,0,0,1-2.17-7.84l.27,2a30,30,0,0,1,0-7.33l-.27,2A25.9,25.9,0,0,1,481,53.94l-.76,1.8a23.52,23.52,0,0,1,1.18-2.42q.29-.49.6-1c.14-.22,1.17-1.61.31-.53s.27-.28.45-.47a6.28,6.28,0,0,0,.87-.83c-1,.74-1.2.89-.57.44l.34-.22a13.1,13.1,0,0,1,1.53-.8l-1.79.75a12.54,12.54,0,0,1,3.06-.85l-2,.27a12.84,12.84,0,0,1,2.63,0l-2-.27a13.69,13.69,0,0,1,3.22.87l-1.79-.75a15.19,15.19,0,0,1,1.66.84c.27.16.53.33.79.51,1,.72-.14-.26-.47-.38.47.16,1.05.93,1.39,1.28.48.51.92,1.05,1.36,1.59.65.78-.14-.25-.35-.47a8.9,8.9,0,0,1,.73,1c.31.45.62.91.92,1.38a21.69,21.69,0,0,1,1.53,2.95l-.76-1.79a24.7,24.7,0,0,1,1.29,4.32l-.27-2a4.6,4.6,0,0,1,0,1l.27-2-.08.3.75-1.79,2.08-2,1.79-.76a2,2,0,0,1-.63.16l2-.27c-2.32.13-4.62,0-6.94.27a74,74,0,0,0-8.63,1.32,65,65,0,0,0-14.87,5.4c-3.52,1.75-4.78,7-2.69,10.26a7.69,7.69,0,0,0,10.26,2.69Z"/></svg>