<svg id="Layer_1" data-name="Layer 1" xmlns="http://www.w3.org/2000/svg" viewBox="0 0 491.59 112.82"><defs><style>.cls-1{fill:#ec941a;}</style></defs><path class="cls-1" d="M156.52,19.42a484.71,484.71,0,0,0,.63,59.9q.61,8.48,1.53,16.94a8.14,8.14,0,0,0,2.2,5.31,7.52,7.52,0,0,0,10.61,0c1.26-1.38,2.4-3.37,2.19-5.31a486,486,0,0,1-2.74-59.83q.13-8.5.58-17a7.55,7.55,0,0,0-7.5-7.5,7.66,7.66,0,0,0-7.5,7.5Z"/><path class="cls-1" d="M167.13,25c1.67-.32,3.34-.62,5-.85l-2,.26a30.61,30.61,0,0,1,7.77-.14l-2-.27a19.86,19.86,0,0,1,4.72,1.33l-1.8-.75a24.11,24.11,0,0,1,3.28,1.77c.06,0,1.46,1,1.44,1s-1.44-1.2-.62-.46l.73.63c.38.35.74.71,1.09,1.08s.43.48.64.72c.73.82-.51-.58-.47-.62s1.56,2.67,1.69,2.95l-.76-1.79a15.29,15.29,0,0,1,.95,3.69l-.27-2a25,25,0,0,1-.12,6l.27-2a30.88,30.88,0,0,1-2,7.37l.75-1.79A30.19,30.19,0,0,1,183,45.76c-.29.45-.61.89-.92,1.33-.77,1.1,1.12-1.35.18-.25-.57.67-1.14,1.32-1.76,1.94s-1.28,1.19-1.94,1.77c-1.12,1,1.47-1,.25-.18-.39.28-.77.55-1.16.81a29.91,29.91,0,0,1-4.79,2.59l1.79-.76a30.34,30.34,0,0,1-7.37,2.05l2-.27q-1,.14-2,.21a7.93,7.93,0,0,0-5.3,2.19,7.66,7.66,0,0,0-2.2,5.31c.17,3.82,3.31,7.8,7.5,7.5,13.17-1,25.52-8.66,31-20.93,2.93-6.57,4.51-14.14,2.75-21.27-1.65-6.72-7-12.22-13-15.42a27.62,27.62,0,0,0-12.8-3.32,61.35,61.35,0,0,0-12.06,1.46c-3.86.73-6.41,5.6-5.24,9.23,1.34,4.13,5.09,6,9.23,5.24Z"/><path class="cls-1" d="M218.19,39.9c.38-.34.77-.67,1.16-1,1.3-1.06-.74.52-.13.09.78-.54,1.54-1.09,2.35-1.59a37,37,0,0,1,5-2.61l-1.79.75a19.62,19.62,0,0,1,4.32-1.25l-2,.27a12.65,12.65,0,0,1,3.31,0l-2-.27a8.84,8.84,0,0,1,1.81.5L228.49,34c.28.13.54.28.82.42,1,.5-1.26-1.1-.66-.53s0,.45-.43-.68c.13.35.45.71.61,1.06l-.75-1.79a12.07,12.07,0,0,1,.73,2.79l-.27-2c1,7.47,1.27,15.08,1.7,22.59s.75,15.29.94,22.94c.1,3.92,3.38,7.68,7.5,7.5s7.61-3.3,7.5-7.5q-.42-17.16-1.68-34.27-.33-4.31-.69-8.61c-.3-3.4-.54-7-2.41-9.94-3.76-6-10.74-7.36-17.26-6a31.76,31.76,0,0,0-8.25,3.34,45.84,45.84,0,0,0-8.31,5.93c-3,2.6-2.85,8,0,10.61a7.69,7.69,0,0,0,10.61,0Z"/><path class="cls-1" d="M239.31,45.41c-6.93-2.56-14-4.52-21.41-3-7.27,1.44-13.65,6.93-15.36,14.26-1.76,7.51.09,16.53,6.19,21.64,5.47,4.59,13.22,6.55,20.13,4.26a23.92,23.92,0,0,0,15.53-17c.9-3.81-1.19-8.31-5.24-9.23-3.84-.87-8.26,1.16-9.22,5.24a20.32,20.32,0,0,1-.89,2.77l.75-1.79a18.15,18.15,0,0,1-1.36,2.58l-.4.6c-.45.62-.28.4.51-.64-.34.34-.62.74-1,1.09a14.22,14.22,0,0,1-1.05,1c-1.44,1.25,1.16-.73.09-.07a20,20,0,0,1-2.53,1.38l1.79-.75a14.28,14.28,0,0,1-3.4.93l2-.26a15.26,15.26,0,0,1-3.82,0l2,.27a16.31,16.31,0,0,1-3.35-.92l1.79.75a14.55,14.55,0,0,1-1.85-.93c-.29-.18-.56-.41-.86-.58,1.83,1,.9.73.32.19-.25-.24-.49-.49-.72-.74-1-1.15.72,1.09.32.43a19.15,19.15,0,0,1-1.29-2.4l.75,1.79a17.19,17.19,0,0,1-1-3.71l.27,2a18.71,18.71,0,0,1,0-4.61l-.27,2a15.1,15.1,0,0,1,.86-3.18l-.75,1.79c.16-.38.34-.75.54-1.12a6,6,0,0,0,.6-1c0,.24-1.28,1.53-.4.56q.36-.39.75-.75a4.17,4.17,0,1,0-.57.4,5.48,5.48,0,0,0,.88-.6,16.16,16.16,0,0,1,1.9-1l-1.79.76A17.74,17.74,0,0,1,223,56.65l-2,.27a21.61,21.61,0,0,1,5.27,0l-2-.27a54.26,54.26,0,0,1,11.09,3.18,7.59,7.59,0,0,0,5.78-.75,7.68,7.68,0,0,0,3.44-4.49c1-4.24-1.29-7.76-5.24-9.22Z"/><path class="cls-1" d="M284.66,36.49c-2.64-2.24-5.34-4.6-8.51-6.07-4.12-1.91-8.82-2.89-13.28-1.51C256,31,251.79,37.49,250.68,44.38A43.51,43.51,0,0,0,250.19,55,33.08,33.08,0,0,0,253,66.8c3.06,6.42,10.73,10.52,17.76,9.91C279.4,76,286.28,70,289,61.8a7.57,7.57,0,0,0-5.24-9.23,7.68,7.68,0,0,0-9.23,5.24c-.15.47-.32.92-.51,1.37l.76-1.79a15.15,15.15,0,0,1-1.13,2.1l-.31.45c-.45.61-.28.4.51-.65a9.61,9.61,0,0,0-.74.82c-.26.26-.53.5-.8.75-1,.93,1.45-1,.38-.27a17.23,17.23,0,0,1-2.22,1.24l1.79-.75a12.57,12.57,0,0,1-3.12.86l2-.26a13.58,13.58,0,0,1-2.85,0l2,.27a13.74,13.74,0,0,1-3.1-.81l1.79.76a13,13,0,0,1-1.58-.8,6.24,6.24,0,0,0-.89-.59c.31.09,1.49,1.24.57.39l-.61-.63c-.83-.86.86,1.28.4.54a17.15,17.15,0,0,1-1.08-2l.76,1.79a23.36,23.36,0,0,1-1.35-5.54l.27,2a39.85,39.85,0,0,1-.06-10.35l-.27,2a21,21,0,0,1,1.36-5l-.75,1.8a14.44,14.44,0,0,1,.77-1.52c.14-.23.32-.45.45-.7.33-.6-1.32,1.45-.46.62.3-.29,1.56-1.4.44-.53s-.23.19.05,0a9.51,9.51,0,0,1,.9-.46l-1.79.76a10.23,10.23,0,0,1,2-.58l-2,.27a12.08,12.08,0,0,1,2.55,0l-2-.27A14.17,14.17,0,0,1,270,44l-1.79-.76a20.25,20.25,0,0,1,3.7,2.12c.23.17.45.35.69.51-1.69-1.14-.73-.57-.34-.24.62.49,1.22,1,1.82,1.51a8,8,0,0,0,5.3,2.2,7.61,7.61,0,0,0,5.3-2.2c2.57-2.79,3.2-7.9,0-10.61Z"/><path class="cls-1" d="M305.55,42l.66-.51-.85.65c.32-.26.67-.51,1-.76.68-.5,1.36-1,2.06-1.47a27,27,0,0,1,4.38-2.41l-1.79.76a16.58,16.58,0,0,1,3.71-1.07l-2,.27a14.3,14.3,0,0,1,3.46,0l-2-.26a12.14,12.14,0,0,1,3,.77l-1.79-.76a11.19,11.19,0,0,1,1.2.6c.05,0,.57.31.56.36s-1.59-1.46-.62-.45c.15.16.31.34.47.48.56.49-.9-1.39-.54-.73s.64,1.07.9,1.66l-.76-1.8a22.23,22.23,0,0,1,1.18,5.1l-.27-2c2.1,15.8-1.44,32.05,3.48,47.52,1.18,3.73,5.26,6.52,9.22,5.24,3.75-1.21,6.51-5.22,5.24-9.23a51.38,51.38,0,0,1-1.88-8.41l.27,2c-1.39-10.35-.21-20.8-.78-31.18-.35-6.44-.85-13.25-5.12-18.4-3.48-4.18-9.73-6.11-15-5.49a26.13,26.13,0,0,0-10.09,3.32A64.17,64.17,0,0,0,295,31.38c-1.41,1.1-2.2,3.61-2.2,5.3A7.61,7.61,0,0,0,295,42a7.5,7.5,0,0,0,5.3,2.2,8.76,8.76,0,0,0,5.3-2.2Z"/><path class="cls-1" d="M327,50.8a31.87,31.87,0,0,0-8.51-3.69,26.89,26.89,0,0,0-8.87-1,17.41,17.41,0,0,0-10.78,4.3,16.23,16.23,0,0,0-4.55,8.21,30.21,30.21,0,0,0-.67,8,24,24,0,0,0,1.16,7.1,16.15,16.15,0,0,0,6.18,8.2,15.45,15.45,0,0,0,9.64,2.53A20.62,20.62,0,0,0,321,80.74a44.41,44.41,0,0,0,7-6.38c2.65-2.89,3.08-7.78,0-10.6-2.88-2.65-7.77-3.09-10.6,0a42.89,42.89,0,0,1-4.95,4.77L314,67.36a17.94,17.94,0,0,1-3.7,2.19l1.79-.76a13,13,0,0,1-3.25.88l2-.27a10.61,10.61,0,0,1-2.39,0l2,.27a10.33,10.33,0,0,1-2.17-.62l1.79.76a9.27,9.27,0,0,1-1.61-.94L309.92,70a8.61,8.61,0,0,1-1.41-1.42l1.17,1.52a10.35,10.35,0,0,1-1.09-1.95l.76,1.79a14.72,14.72,0,0,1-.83-3.34l.27,2a26.67,26.67,0,0,1,0-6.68l-.27,2a15.34,15.34,0,0,1,.84-3.28l-.75,1.79a9.88,9.88,0,0,1,1.13-2L308.56,62A8.67,8.67,0,0,1,310,60.56l-1.52,1.17a9.33,9.33,0,0,1,1.57-.89l-1.8.76a11,11,0,0,1,2.45-.68l-2,.27a18.47,18.47,0,0,1,4.87.06l-2-.27a25.63,25.63,0,0,1,6.12,1.69l-1.79-.76a27.37,27.37,0,0,1,3.52,1.84,7.58,7.58,0,0,0,10.26-2.69A7.65,7.65,0,0,0,327,50.8Z"/></svg>