<svg width="1049.375px" height="135.2px" xmlns="http://www.w3.org/2000/svg" viewBox="-274.6875 7.400000000000006 1049.375 135.2" style="background: rgba(0, 0, 0, 0);" preserveAspectRatio="xMidYMid"><defs><filter id="editing-extrusion" x="-100%" y="-100%" width="300%" height="300%"><feFlood result="color1" flood-color="#444"></feFlood><feConvolveMatrix order="8,8" divisor="1" kernelMatrix="1 0 0 0 0 0 0 0 0 1 0 0 0 0 0 0 0 0 1 0 0 0 0 0 0 0 0 1 0 0 0 0 0 0 0 0 1 0 0 0 0 0 0 0 0 1 0 0 0 0 0 0 0 0 1 0 0 0 0 0 0 0 0 1" in="SourceAlpha" result="extrude"></feConvolveMatrix><feComposite in="color1" in2="extrude" result="comp-extrude" operator="in"></feComposite><feOffset dx="4" dy="4" in="comp-extrude" result="offset-extrude"></feOffset><feMerge><feMergeNode in="offset-extrude"></feMergeNode><feMergeNode in="SourceGraphic"></feMergeNode></feMerge></filter></defs><g filter="url(#editing-extrusion)"><g transform="translate(-123.19120788574219, 111.3088264465332)"><path d="M21-10.50L0-10.50L0-84L63.00-84L63.00-73.50L73.50-73.50L73.50-42L63.00-42L63.00-31.50L21-31.50L21-10.50ZM21-73.50L21-42L52.50-42L52.50-73.50L21-73.50ZM157.50-10.50L94.50-10.50L94.50-21L84-21L84-63.00L105-63.00L105-21L136.50-21L136.50-63.00L157.50-63.00L157.50-10.50ZM189-10.50L168-10.50L168-63.00L231-63.00L231-52.50L241.50-52.50L241.50-10.50L220.50-10.50L220.50-52.50L189-52.50L189-10.50ZM273-10.50L252-10.50L252-84L273-84L273-42L294-42L294-52.50L304.50-52.50L304.50-63.00L325.50-63.00L325.50-52.50L315-52.50L315-42L304.50-42L304.50-31.50L315-31.50L315-21L325.50-21L325.50-10.50L304.50-10.50L304.50-21L294-21L294-31.50L273-31.50L273-10.50ZM441-63.00L441-21L451.50-21L451.50-10.50L430.50-10.50L430.50-21L420-21L420-63.00L441-63.00ZM451.50-63.00L462-63.00L462-21L451.50-21L451.50-63.00ZM472.50-63.00L493.50-63.00L493.50-21L483-21L483-10.50L462-10.50L462-21L472.50-21L472.50-63.00ZM525-10.50L504-10.50L504-84L525-84L525-63.00L567-63.00L567-52.50L577.50-52.50L577.50-10.50L556.50-10.50L556.50-52.50L525-52.50L525-10.50ZM651-10.50L598.50-10.50L598.50-21L588-21L588-52.50L598.50-52.50L598.50-63.00L651-63.00L651-52.50L661.50-52.50L661.50-21L651-21L651-10.50ZM609-52.50L609-21L640.50-21L640.50-52.50L609-52.50ZM724.50-31.50L693-31.50L693-42L714-42L714-52.50L724.50-52.50L724.50-63.00L693-63.00L693-52.50L672-52.50L672-73.50L682.50-73.50L682.50-84L735-84L735-73.50L745.50-73.50L745.50-52.50L735-52.50L735-42L724.50-42L724.50-31.50ZM724.50-10.50L693-10.50L693-21L724.50-21L724.50-10.50Z" fill="#ccc"></path></g></g><style>text {
  font-size: 64px;
  font-family: Arial Black;
  dominant-baseline: central;
  text-anchor: middle;
}</style></svg>