<svg id="Layer_1" data-name="Layer 1" xmlns="http://www.w3.org/2000/svg" viewBox="0 0 243.57 127.4"><defs><style>.cls-1{fill:#fff;}</style></defs><path class="cls-1" d="M.53,8.13q-1.06,26.74,0,53.5.3,7.58.78,15.16c.24,3.91,3.27,7.69,7.5,7.5,3.85-.17,7.76-3.31,7.5-7.5q-1.68-26.7-1.22-53.48.13-7.59.43-15.18A7.56,7.56,0,0,0,8,.63a7.67,7.67,0,0,0-7.5,7.5Z"/><path class="cls-1" d="M10.73,14.92c.28-.05.55-.1.83-.13l-2,.26a16,16,0,0,1,3.72,0l-2-.27a20.64,20.64,0,0,1,4.82,1.33l-1.79-.75a30.46,30.46,0,0,1,4.2,2.19c.74.47,1.46,1,2.17,1.47l.87.65c.61.44-1.45-1.16-.15-.11.32.26.62.58.95.82s-1.46-2-.68-.85a15.84,15.84,0,0,1,1.16,2.24L22.09,20A14.66,14.66,0,0,1,23,23.38l-.27-2a11.81,11.81,0,0,1,0,3l.27-2a11.62,11.62,0,0,1-.7,2.43l.76-1.8c-.25.55-.56,1-.85,1.57-.41.75,1.14-1.3.26-.32-.18.2-.35.4-.53.59-.45.49-.92,1-1.41,1.4l-.59.52c-.22.19-1.18.95-.15.15s.2-.16,0,0l-.8.55c-.49.32-1,.63-1.5.92A31.08,31.08,0,0,1,14.14,30l1.79-.76a39.07,39.07,0,0,1-8,2.28A7.48,7.48,0,0,0,3.45,35a7.64,7.64,0,0,0-.76,5.78,7.54,7.54,0,0,0,3.45,4.48,8.41,8.41,0,0,0,5.77.76,40.54,40.54,0,0,0,13.64-5c5-3,9.56-7.31,11.49-12.94,1.68-4.93.57-10.37-1.71-14.89-1.9-3.78-5.56-6.25-9-8.46A32.63,32.63,0,0,0,17.72.83a24,24,0,0,0-11-.37A7.52,7.52,0,0,0,2.26,3.91,7.65,7.65,0,0,0,1.5,9.68,7.59,7.59,0,0,0,5,14.17a8.42,8.42,0,0,0,5.78.75Z"/><path class="cls-1" d="M3.17,42.56a180,180,0,0,1,21.91,38l-.75-1.79c.4,1,.8,1.93,1.19,2.91A8.24,8.24,0,0,0,29,86.19a7.63,7.63,0,0,0,5.78.75,7.53,7.53,0,0,0,4.48-3.44c.88-1.67,1.5-4,.76-5.78A186.6,186.6,0,0,0,16.12,35a8.22,8.22,0,0,0-4.48-3.44,7.5,7.5,0,0,0-9.23,5.23C2,38.62,2,41,3.17,42.56Z"/><path class="cls-1" d="M57.75,34.05c.18-.38.55-1.39.92-1.58-.23.12-1.24,1.48-.36.53.21-.22.44-.42.65-.64.72-.71-.5.47-.66.48a4.21,4.21,0,0,0,.76-.53,14.82,14.82,0,0,1,1.81-1l-1.79.76a15.88,15.88,0,0,1,3.83-1l-2,.27a23.79,23.79,0,0,1,6,.07l-2-.27a23.2,23.2,0,0,1,4.81,1L68,31.43a4.59,4.59,0,0,1,.73.38,3.09,3.09,0,0,1-1.3-1.15c-.85-1.12,0,.16.13.48l-.75-1.8a62,62,0,0,1,3.44,14.47l-.27-2c1.57,11.84.78,23.81-.06,35.69-.28,3.92,3.65,7.67,7.5,7.5a7.69,7.69,0,0,0,7.5-7.5c.78-11.11,1.55-22.31.34-33.41a82.23,82.23,0,0,0-3.61-17.72,15.28,15.28,0,0,0-3-5.58A12,12,0,0,0,73,17.46a34.42,34.42,0,0,0-9.73-1.29C56,16.28,48.1,19.62,44.8,26.48A8.07,8.07,0,0,0,44,32.26a7.67,7.67,0,0,0,3.45,4.48c3.35,1.77,8.45,1.08,10.26-2.69Z"/><path class="cls-1" d="M79.44,46.19C74,42,68,38.19,60.81,38.18a19.58,19.58,0,0,0-9.89,2.6,17.58,17.58,0,0,0-7.27,8.92,24.28,24.28,0,0,0-1.43,8.91c0,3.61.41,7.45,2.5,10.51a21.24,21.24,0,0,0,18.64,8.65A22.47,22.47,0,0,0,81.71,66c1.78-3.5,1-8.3-2.69-10.27-3.42-1.8-8.35-1-10.26,2.7a17.91,17.91,0,0,1-1.27,2.09c-.34.46-.14.2.59-.78-.16.2-.32.39-.49.57s-.53.55-.8.8-.58.49-.86.74c1.65-1.48.8-.62.3-.29a16.32,16.32,0,0,1-2.34,1.23l1.8-.75A16,16,0,0,1,62,63l2-.27a16.57,16.57,0,0,1-3.59,0l2,.27a16.85,16.85,0,0,1-3.87-1l1.79.76a17.28,17.28,0,0,1-1.62-.79,9.19,9.19,0,0,1-.85-.52c-.26-.16-1.26-.91-.2-.1s-.6-.44-.62-.7c0,.05,1,1.54.48.62-.19-.33-.37-.64-.53-1L57.69,62a9.64,9.64,0,0,1-.55-2.11l.27,2a27.1,27.1,0,0,1,0-6.49l-.27,2a15.56,15.56,0,0,1,1-3.75l-.75,1.79a11.62,11.62,0,0,1,.8-1.52c.15-.23.72-1,0,0s0,.11.15-.07.52-.37.54-.48c0,.18-1.53,1-.65.53.53-.28,1-.59,1.59-.83L58,53.84A13.34,13.34,0,0,1,61.15,53l-2,.27a15.26,15.26,0,0,1,3.31,0l-2-.26a17.84,17.84,0,0,1,4.36,1.19L63,53.46a25.93,25.93,0,0,1,3.62,1.89q.82.51,1.62,1.08c.5.35,2.42,1.81.56.37A8.21,8.21,0,0,0,74.14,59a7.63,7.63,0,0,0,5.3-2.2,7.55,7.55,0,0,0,2.2-5.3c-.08-1.84-.67-4.12-2.2-5.31Z"/><path class="cls-1" d="M90.71,30.67l.8,42c.08,3.92,3.4,7.68,7.5,7.5s7.58-3.3,7.5-7.5l-.8-41.95c-.08-3.92-3.4-7.69-7.5-7.5s-7.58,3.3-7.5,7.5Z"/><path class="cls-1" d="M105.39,49.66a23.85,23.85,0,0,0,4-3.55c1.16-1.37,2.22-2.83,3.32-4.26l-1.17,1.52A18.78,18.78,0,0,1,114.68,40l-1.51,1.17a8.29,8.29,0,0,1,1.6-.94l-1.79.75a7.31,7.31,0,0,1,1.6-.45l-2,.27a6.67,6.67,0,0,1,1.61,0l-2-.27a7.27,7.27,0,0,1,1.52.41l-1.79-.76a8.68,8.68,0,0,1,1.61.94L112,39.9a10.85,10.85,0,0,1,1.76,1.76l-1.17-1.52a12.71,12.71,0,0,1,1.45,2.46l-.75-1.79a12.85,12.85,0,0,1,.79,2.72A7.53,7.53,0,0,0,117.56,48a7.68,7.68,0,0,0,5.78.76,7.6,7.6,0,0,0,4.48-3.45,8.55,8.55,0,0,0,.76-5.78c-1.24-7.22-7.46-13.52-14.91-13.83-3.79-.16-7.14,1.58-10,3.94-2,1.68-3.51,4-5.1,6.06l1.17-1.51a20.72,20.72,0,0,1-3.28,3.53L98,36.56l-.2.15a8.29,8.29,0,0,0-3.45,4.48A7.67,7.67,0,0,0,95.13,47a7.59,7.59,0,0,0,4.48,3.45c1.83.41,4.22.43,5.78-.76Z"/><path class="cls-1" d="M132,33.93a446.06,446.06,0,0,0,4.5,53.27c.24,1.73,2,3.65,3.44,4.48a7.68,7.68,0,0,0,5.78.76A7.54,7.54,0,0,0,150.21,89a8.78,8.78,0,0,0,.76-5.78c-.19-1.3-.37-2.61-.55-3.92l.27,2A429,429,0,0,1,147,33.93c-.09-3.92-3.39-7.69-7.5-7.5s-7.6,3.3-7.5,7.5Z"/><path class="cls-1" d="M138.12,18.2c3.93,0,7.69-3.45,7.5-7.5a7.62,7.62,0,0,0-7.5-7.5c-3.92,0-7.68,3.45-7.5,7.5a7.64,7.64,0,0,0,7.5,7.5Z"/><path class="cls-1" d="M163.07,8.88q-.72,20.88-.65,41.77,0,10.2.27,20.39c.17,7.44-.5,17,7.24,21.14a15.64,15.64,0,0,0,14.12,0c3.39-1.58,6-4.38,8.43-7.18a8,8,0,0,0,2.2-5.31,7.63,7.63,0,0,0-2.2-5.3c-2.79-2.57-7.89-3.19-10.6,0-1,1.13-1.94,2.27-3,3.3-.24.23-.5.44-.74.67-.66.62,1.45-1,.41-.3a13.83,13.83,0,0,1-2.05,1.16l1.79-.75a9.87,9.87,0,0,1-2.44.64l2-.27a9,9,0,0,1-2.14,0l2,.27a7.8,7.8,0,0,1-1.34-.36l1.79.76a10,10,0,0,1-.93-.46c-1-.56,1.13,1,.56.42s.93,1.66.37.5c-.16-.34-.35-.65-.5-1l.76,1.79a12,12,0,0,1-.63-2.58l.27,2c-.49-4.33-.34-8.79-.42-13.14q-.13-7.08-.18-14.17-.08-14.05.2-28.1.17-8,.44-15.91a7.57,7.57,0,0,0-7.5-7.5,7.66,7.66,0,0,0-7.5,7.5Z"/><path class="cls-1" d="M159.37,45.76a196.25,196.25,0,0,0,22.88-.58,8.09,8.09,0,0,0,5.31-2.2,7.6,7.6,0,0,0,2.19-5.3c-.17-3.79-3.31-7.86-7.5-7.5a196.25,196.25,0,0,1-22.88.58,7.5,7.5,0,0,0,0,15Z"/><path class="cls-1" d="M195.66,39.24a83.8,83.8,0,0,0,19.51,27.7c2.86,2.69,7.81,3,10.61,0s3.05-7.73,0-10.6c-1.9-1.79-3.72-3.67-5.44-5.64a36,36,0,0,1-2.56-3.1c.31.45,1,1.29.26.34-.17-.22-.33-.45-.5-.68-.42-.57-.83-1.14-1.24-1.72a78.88,78.88,0,0,1-7.69-13.87c-.69-1.6-2.88-3-4.48-3.44a7.5,7.5,0,0,0-9.23,5.23,8.84,8.84,0,0,0,.76,5.78Z"/><path class="cls-1" d="M229.61,21.63a686.54,686.54,0,0,0-29.22,74.94Q197,107.21,193.87,118c-1.08,3.77,1.32,8.33,5.24,9.22a7.65,7.65,0,0,0,9.23-5.24q8.66-30.2,20.1-59.5,3.21-8.19,6.63-16.31l-.75,1.79q4-9.42,8.24-18.73a8.12,8.12,0,0,0,.76-5.78,7.64,7.64,0,0,0-3.45-4.48c-3.3-1.75-8.52-1.12-10.26,2.69Z"/></svg>