<svg width="820.8874999999999px" height="135.2px" xmlns="http://www.w3.org/2000/svg" viewBox="-160.44374999999997 7.400000000000006 820.8874999999999 135.2" style="background: rgba(0, 0, 0, 0);" preserveAspectRatio="xMidYMid"><defs><filter id="editing-extrusion" x="-100%" y="-100%" width="300%" height="300%"><feFlood result="color1" flood-color="#444"></feFlood><feConvolveMatrix order="8,8" divisor="1" kernelMatrix="1 0 0 0 0 0 0 0 0 1 0 0 0 0 0 0 0 0 1 0 0 0 0 0 0 0 0 1 0 0 0 0 0 0 0 0 1 0 0 0 0 0 0 0 0 1 0 0 0 0 0 0 0 0 1 0 0 0 0 0 0 0 0 1" in="SourceAlpha" result="extrude"></feConvolveMatrix><feComposite in="color1" in2="extrude" result="comp-extrude" operator="in"></feComposite><feOffset dx="4" dy="4" in="comp-extrude" result="offset-extrude"></feOffset><feMerge><feMergeNode in="offset-extrude"></feMergeNode><feMergeNode in="SourceGraphic"></feMergeNode></feMerge></filter></defs><g filter="url(#editing-extrusion)"><g transform="translate(-39.19118881225586, 116.5588264465332)"><path d="M21-10.50L0-10.50L0-84L63.00-84L63.00-73.50L73.50-73.50L73.50-42L52.50-42L52.50-31.50L63.00-31.50L63.00-21L73.50-21L73.50-10.50L42-10.50L42-21L31.50-21L31.50-31.50L21-31.50L21-10.50ZM21-73.50L21-42L42-42L42-52.50L52.50-52.50L52.50-73.50L21-73.50ZM147-10.50L94.50-10.50L94.50-21L84-21L84-52.50L94.50-52.50L94.50-63.00L147-63.00L147-52.50L157.50-52.50L157.50-21L147-21L147-10.50ZM105-52.50L105-21L136.50-21L136.50-52.50L105-52.50ZM241.50-10.50L178.50-10.50L178.50-21L168-21L168-31.50L178.50-31.50L178.50-42L220.50-42L220.50-52.50L178.50-52.50L178.50-63.00L231-63.00L231-52.50L241.50-52.50L241.50-10.50ZM189-31.50L189-21L220.50-21L220.50-31.50L189-31.50ZM325.50-10.50L262.50-10.50L262.50-21L252-21L252-52.50L262.50-52.50L262.50-63.00L304.50-63.00L304.50-84L325.50-84L325.50-10.50ZM273-52.50L273-21L304.50-21L304.50-52.50L273-52.50ZM346.50-10.50L336-10.50L336-63.00L399-63.00L399-52.50L409.50-52.50L409.50-10.50L388.50-10.50L388.50-52.50L378-52.50L378-10.50L357-10.50L357-52.50L346.50-52.50L346.50-10.50ZM493.50-10.50L430.50-10.50L430.50-21L420-21L420-31.50L430.50-31.50L430.50-42L472.50-42L472.50-52.50L430.50-52.50L430.50-63.00L483-63.00L483-52.50L493.50-52.50L493.50-10.50ZM441-31.50L441-21L472.50-21L472.50-31.50L441-31.50ZM525 0L504 0L504-63.00L567-63.00L567-52.50L577.50-52.50L577.50-31.50L567-31.50L567-21L525-21L525 0ZM525-52.50L525-31.50L556.50-31.50L556.50-52.50L525-52.50Z" fill="#ccc"></path></g></g><style>text {
  font-size: 64px;
  font-family: Arial Black;
  dominant-baseline: central;
  text-anchor: middle;
}</style></svg>