<svg id="Layer_1" data-name="Layer 1" xmlns="http://www.w3.org/2000/svg" viewBox="0 0 491.59 112.82"><defs><style>.cls-1{fill:#ec941a;}</style></defs><path class="cls-1" d="M157.83,26.57a21.88,21.88,0,0,0-3.46-6,19.62,19.62,0,0,0-4-3.59,19.08,19.08,0,0,0-8.15-3.36A21.35,21.35,0,0,0,130,15.23a20,20,0,0,0-7.15,5.33,23.22,23.22,0,0,0-5.12,9.58,24.49,24.49,0,0,0,0,11.2,25.66,25.66,0,0,0,5.19,10.26,31.13,31.13,0,0,0,7.73,6.54c1.43.92,2.89,1.78,4.32,2.71.7.45,1.39.92,2.07,1.4.33.24.66.52,1,.74-1.8-1.12-.66-.51-.21-.14a32.17,32.17,0,0,1,3.66,3.63c.66.75-1.1-1.6-.29-.37.26.4.53.78.77,1.18a17.86,17.86,0,0,1,1.19,2.35l-.75-1.79a18,18,0,0,1,1.07,3.88l-.27-2a14.7,14.7,0,0,1,0,3.57l.27-2a12.92,12.92,0,0,1-.72,2.66l.75-1.8a7.71,7.71,0,0,1-.51,1,7.14,7.14,0,0,1-.41.65c.76-.94.95-1.2.56-.78-1.2,1,1-.55.35-.19-.39.21-.75.43-1.16.61l1.79-.75a9.83,9.83,0,0,1-2.2.54l2-.27a13.89,13.89,0,0,1-3.09-.06l2,.27A19.55,19.55,0,0,1,138.51,72l1.8.75a20.54,20.54,0,0,1-2.8-1.44c-.42-.27-.82-.56-1.23-.84-.72-.5,1.29,1.08.64.49-.22-.21-.47-.4-.7-.61s-.71-.69-1.05-1-.71-1-1-1.12c.13,0,1.08,1.49.51.63l-.52-.77c-.29-.47-.56-1-.82-1.45a7.55,7.55,0,0,0-10.26-2.69,7.66,7.66,0,0,0-2.69,10.26,26.8,26.8,0,0,0,14.11,12.3c6.31,2.52,14.45,2.32,19.35-3,5.58-6,5.28-14.82,2.07-21.85-2.61-5.7-7.62-9.94-12.72-13.35-1.29-.86-2.62-1.66-3.93-2.48-.67-.41-1.33-.83-2-1.27l-.88-.61c-.5-.35-1.26-1.25.16.15-.49-.49-1.06-.91-1.56-1.4-.27-.27-.53-.56-.79-.85L134,41.6c-.48-.6-.33-.4.46.6-.64-1.26-1.52-2.37-2.09-3.7l.75,1.79a18.91,18.91,0,0,1-1.21-4.45l.26,2a17.52,17.52,0,0,1,0-4.22l-.27,2a15.51,15.51,0,0,1,1.05-3.84l-.76,1.79a15.76,15.76,0,0,1,1.35-2.49c1.05-1.58-.95,1-.1.09.27-.3.54-.62.83-.91l.91-.85c.92-.85-1.68,1.16-.11.11a14.42,14.42,0,0,1,2.48-1.33l-1.79.76a14.08,14.08,0,0,1,3.05-.84l-2,.26a13.81,13.81,0,0,1,3.46,0l-2-.27a15,15,0,0,1,3.35.9l-1.79-.76a15.81,15.81,0,0,1,2,1,3.68,3.68,0,0,1,1,.68l-1-.74.52.46c.25.23.49.48.73.73s.3.34.44.52l-.75-1c.42.11,1,1.76,1.19,2.09l-.76-1.79.14.32A8.29,8.29,0,0,0,146.81,35a7.51,7.51,0,0,0,10.26-2.69c.88-1.66,1.51-4,.76-5.78Z"/><path class="cls-1" d="M165.92,23.36l.48,51.05.14,14.7c0,3.92,3.43,7.68,7.5,7.5a7.63,7.63,0,0,0,7.5-7.5l-.48-51.06-.14-14.69c0-3.92-3.43-7.69-7.5-7.5a7.61,7.61,0,0,0-7.5,7.5Z"/><path class="cls-1" d="M208.5,92.59q-.9-5.32-1.62-10.68l.27,2A320.31,320.31,0,0,1,204.52,30h-15c.48,9.53,3.87,18.5,8.74,26.64a119.35,119.35,0,0,0,7.14,10.43c1.64,2.18,3.32,4.33,5,6.48l1,1.23.41.53-.35-.45c.68.88,1.36,1.77,2,2.66a111.37,111.37,0,0,1,8.27,12.4,7.6,7.6,0,0,0,8.47,3.45,7.68,7.68,0,0,0,5.51-7.23l-1.06-62.44c-.07-3.92-3.4-7.68-7.5-7.5a7.62,7.62,0,0,0-7.5,7.5l1.06,62.44,14-3.79a102.65,102.65,0,0,0-6.82-10.43c-1.23-1.68-2.49-3.34-3.76-5l-2.81-3.63-1.1-1.42c-.9-1.16,1.07,1.4,0-.07-5-6.5-9.79-13.21-13.05-20.78l.76,1.79a46.39,46.39,0,0,1-3.27-11.41l.27,2c-.15-1.13-.26-2.26-.31-3.4-.2-3.91-3.31-7.68-7.5-7.5a7.66,7.66,0,0,0-7.5,7.5,319.63,319.63,0,0,0,2.22,50.72c.66,5.29,1.41,10.57,2.3,15.83a7.53,7.53,0,0,0,3.44,4.49,7.51,7.51,0,0,0,10.26-2.69,8.56,8.56,0,0,0,.76-5.78Z"/><path class="cls-1" d="M279.56,30.62c-.3-4.26-1.16-8.84-3.6-12.45-3-4.46-7.83-7.62-13.39-7.42-10.65.38-17.66,9.79-20.29,19.27a64.48,64.48,0,0,0-1.95,13.7,124,124,0,0,0,0,13.9A146.2,146.2,0,0,0,242,73c.79,5,2.85,10.32,7.75,12.62,5.93,2.79,12.36,1.35,17.92-1.64a29.6,29.6,0,0,0,11.13-10.75,7.5,7.5,0,1,0-12.95-7.57c-.27.45-.55.88-.84,1.31-.17.24-.9,1.21-.11.17s.16-.21,0,0a21.27,21.27,0,0,1-2.32,2.33,5,5,0,0,1-.6.5s1.51-1.1.6-.47c-.43.3-.85.59-1.29.87a23.84,23.84,0,0,1-3.1,1.59l1.79-.76a18.32,18.32,0,0,1-4.1,1.18l2-.27a10.61,10.61,0,0,1-2.7,0l2,.27a9.13,9.13,0,0,1-1.45-.39l1.79.76c-.33-.15-.67-.39-1-.52.95.78,1.22,1,.8.6a4.4,4.4,0,0,1-.37-.38c.32,0,1.13,1.74.36.37-.18-.32-.32-.64-.47-1l.76,1.79A34.13,34.13,0,0,1,256,65.83l.27,2a115.41,115.41,0,0,1-.36-30.28l-.27,2A37.37,37.37,0,0,1,258,30.29l-.75,1.79a25.41,25.41,0,0,1,1.5-2.94c.28-.47.6-.92.91-1.39.75-1.13-1.25,1.47-.12.21a12,12,0,0,1,.93-1l.56-.51c.6-.48.39-.33-.62.47.89-.45,1.67-1.07,2.6-1.48l-1.79.76a11.59,11.59,0,0,1,2.43-.69l-2,.27a9.48,9.48,0,0,1,2.13,0l-2-.27a8.61,8.61,0,0,1,2.06.56l-1.79-.76a9.67,9.67,0,0,1,1.4.8c-.08.13-1.57-1.48-.65-.47.17.2.37.39.55.58.73.72-.65-.73-.57-.77a8,8,0,0,1,.45.68,14.63,14.63,0,0,1,.84,1.62L263.35,26a19.77,19.77,0,0,1,1.31,4.95l-.27-2c.07.56.13,1.12.17,1.68a8,8,0,0,0,2.19,5.31,7.6,7.6,0,0,0,5.31,2.19c3.83-.17,7.78-3.3,7.5-7.5Z"/><path class="cls-1" d="M314.58,15.39c-7.27,0-14.43,3.19-20,7.62-11.85,9.39-14.49,26.06-11.75,40.14a51.83,51.83,0,0,0,3,10,42.81,42.81,0,0,0,6.4,11.28c5.87,7.13,15.61,8.79,24.14,6.08A36.08,36.08,0,0,0,334.63,77c4.88-6.72,6.36-15.16,7.06-23.25.74-8.65-.17-18.18-5-25.65s-13-13.08-22.13-12.7c-3.91.17-7.69,3.34-7.5,7.5.18,3.93,3.3,7.68,7.5,7.5a17.64,17.64,0,0,1,2.52.09l-2-.27a17.42,17.42,0,0,1,4.13,1.12l-1.79-.76a20.25,20.25,0,0,1,3.16,1.74c.48.33,1.36,1.18-.34-.31l.56.47c.51.44,1,.9,1.47,1.39s.82.92,1.22,1.38-1.14-1.63-.38-.49c.17.25.35.5.52.76A23.25,23.25,0,0,1,325.53,39l-.75-1.79a31.66,31.66,0,0,1,2,7.53l-.27-2a56,56,0,0,1-.24,14.51l.27-2a42.31,42.31,0,0,1-2.66,10.62l.76-1.79a27.49,27.49,0,0,1-2.56,4.67c-.21.31-.46.6-.65.92,1.16-1.88.63-.81.24-.34-.56.67-1.16,1.32-1.78,1.93s-1.18,1.12-1.81,1.64c-1.31,1.09,1.31-.93.19-.13-.31.22-.61.44-.93.65A27.69,27.69,0,0,1,312.76,76l1.79-.75a25.06,25.06,0,0,1-5.82,1.63l2-.27a18.8,18.8,0,0,1-4.56,0l2,.27a14.62,14.62,0,0,1-3.55-1l1.8.76a13.36,13.36,0,0,1-1.74-1c-.05,0-.6-.45-.62-.44s1.58,1.32.49.33q-.63-.59-1.2-1.23c-.2-.22-1-1.17-.15-.13s0,0-.1-.18a37.25,37.25,0,0,1-3.54-6.73l.76,1.79a51.83,51.83,0,0,1-3.48-12.53l.27,2a42.47,42.47,0,0,1,0-11.15l-.27,2a35.37,35.37,0,0,1,2.35-8.57l-.76,1.79a28.77,28.77,0,0,1,2.76-5l.37-.53c.76-1.07-.37.64-.5.64.14,0,.67-.81.79-.94a24.78,24.78,0,0,1,1.75-1.8c.28-.26.56-.51.85-.75.14-.12.29-.23.43-.36.61-.53-1.53,1.14-.87.67s1.21-.87,1.85-1.26a28,28,0,0,1,3.65-1.88l-1.79.76a27.65,27.65,0,0,1,6.8-1.86l-2,.27a16.22,16.22,0,0,1,2.09-.18c3.92,0,7.68-3.44,7.5-7.5a7.63,7.63,0,0,0-7.5-7.5Z"/><path class="cls-1" d="M373.54,25.27c-3.61-6.13-11.37-8-17.78-5.52-3.38,1.3-6.65,3.1-8.64,6.24-1.76,2.76-2.05,6-1.94,9.18a44.17,44.17,0,0,0,1,8.57,36,36,0,0,0,3,7.76c2.06,4.12,4.76,7.89,6.6,12.13l-.76-1.8a25.07,25.07,0,0,1,1.78,6.23l-.27-2a17.06,17.06,0,0,1,0,3.78l.27-2a13.66,13.66,0,0,1-.83,3.21l.76-1.79c-.14.31-1,1.59-.13.49A3.16,3.16,0,0,1,358,68.58a3.46,3.46,0,0,1-.72.36l1.79-.76a8.82,8.82,0,0,1-1.18.27l2-.27a20.22,20.22,0,0,1-4.33,0l2,.27a8.76,8.76,0,0,1-1.6-.42l1.79.76c-.74-.34-1.55-1.24.07.26q-.8-.81.51.75a4.25,4.25,0,0,1-.31-.6l.76,1.8a3.69,3.69,0,0,1-.18-.65,7.56,7.56,0,0,0-9.23-5.24,7.69,7.69,0,0,0-5.24,9.23,11.27,11.27,0,0,0,6.05,7.4,18.22,18.22,0,0,0,9.31,1.47c4.13-.3,7.84-2,9.94-5.73a19.54,19.54,0,0,0,2.25-8.9c.17-5.34-1.79-10.63-4.24-15.28C365.42,49.5,363,46,361.24,42l.75,1.8a25.92,25.92,0,0,1-1.76-6.29l.27,2a31.4,31.4,0,0,1-.25-7.5L360,34a7,7,0,0,1,.45-1.55l-.76,1.79c.69-1.28-1.22,1.17-.3.29s-1.64,1.06-.22.16a16.29,16.29,0,0,1,2.39-1.22l-1.8.76a12.67,12.67,0,0,1,2.94-.79l-2,.27a9.74,9.74,0,0,1,2,0l-2-.26a8.06,8.06,0,0,1,1.74.5l-1.79-.76c.22.1.43.21.64.33.63.41.42.23-.65-.55a4.72,4.72,0,0,1,.5.5c-.78-1.08-1-1.29-.57-.64,2,3.38,6.85,4.89,10.27,2.69a7.64,7.64,0,0,0,2.69-10.26Z"/></svg>